<?xml version="1.0" encoding="UTF-8"?>
<svg id="Layer_2" data-name="Layer 2" xmlns="http://www.w3.org/2000/svg" viewBox="0 0 210.89 60">
  <defs>
    <style>
      .cls-1 {
        fill: #5757f7;
      }

      .cls-1, .cls-2 {
        stroke-width: 0px;
      }

      .cls-2 {
        fill: #fff;
      }
    </style>
  </defs>
  <g id="Capa_1" data-name="Capa 1">
    <g>
      <g>
        <path class="cls-1" d="M63.09,52.75v-25.29h16.16v4.46h-10.73v5.8h10.36v4.46h-10.36v6.12h10.73v4.46h-16.16Z"/>
        <path class="cls-1" d="M84.29,52.75v-18.7h5.36v3.41h.22c.83-2.1,2.5-3.84,5.51-3.84,3.59,0,6.09,2.5,6.09,7.03v12.1h-5.36v-11.38c0-2.35-1.05-3.62-3.15-3.62-1.67,0-3.3.91-3.3,2.72v12.28h-5.36Z"/>
        <path class="cls-1" d="M106.57,52.75v-25.29h16.78v4.46h-11.34v5.8h10.14v4.46h-10.14v10.58h-5.44,0Z"/>
        <path class="cls-1" d="M127.87,48.59h5.72v-18.48h-5.72v-4.17h11.09v22.64h5.72v4.17h-16.81v-4.17h0Z"/>
        <path class="cls-1" d="M161.17,49.35h-.22c-.83,2.1-2.5,3.84-5.51,3.84-3.59,0-6.09-2.5-6.09-7.03v-12.1h5.36v11.38c0,2.35,1.05,3.62,3.15,3.62,1.67,0,3.3-.91,3.3-2.72v-12.28h5.36v18.7h-5.36v-3.41h0Z"/>
        <path class="cls-1" d="M172.23,55.83h7.17v-17.61h-7.25v-4.17h12.61v20.54c0,3.15-1.85,5.4-5.69,5.4h-6.85v-4.17h0ZM178.86,29.13v-1.05c0-1.45.83-2.54,3.23-2.54s3.23,1.09,3.23,2.54v1.05c0,1.41-.87,2.54-3.23,2.54s-3.23-1.12-3.23-2.54Z"/>
        <path class="cls-1" d="M192.12,43.41c0-6.05,3.55-9.78,9.38-9.78s9.38,3.73,9.38,9.78-3.55,9.78-9.38,9.78-9.38-3.73-9.38-9.78ZM205.34,44.89v-2.97c0-2.75-1.45-4.31-3.84-4.31s-3.84,1.56-3.84,4.31v2.97c0,2.75,1.45,4.31,3.84,4.31s3.84-1.56,3.84-4.31Z"/>
      </g>
      <g>
        <path class="cls-1" d="M63.09,17.24V1.15h1.94v14.4h7.63v1.68h-9.56Z"/>
        <path class="cls-1" d="M85.56,17.24c-1.43,0-1.98-.83-2.12-1.94h-.11c-.51,1.36-1.64,2.21-3.57,2.21-2.49,0-4.08-1.38-4.08-3.62s1.54-3.46,5.12-3.46h2.53v-1.18c0-1.73-1.04-2.63-2.83-2.63-1.59,0-2.56.67-3.18,1.75l-1.24-.92c.6-1.24,2.12-2.4,4.54-2.4,2.79,0,4.56,1.5,4.56,4.01v6.55h1.66v1.61h-1.27,0ZM83.32,13.78v-1.96h-2.53c-2.19,0-3.18.65-3.18,1.8v.49c0,1.22.94,1.87,2.47,1.87,1.89,0,3.25-.97,3.25-2.19h0Z"/>
        <path class="cls-1" d="M90.17.19h1.84v7.1h.09c.76-1.45,2-2.21,3.66-2.21,2.9,0,4.66,2.33,4.66,6.22s-1.75,6.22-4.66,6.22c-1.66,0-2.9-.76-3.66-2.21h-.09v1.94h-1.84V.19ZM98.44,12.31v-2.03c0-2.14-1.24-3.57-3.39-3.57-1.64,0-3.04.85-3.04,2.44v4.28c0,1.59,1.4,2.44,3.04,2.44,2.14,0,3.39-1.43,3.39-3.57h0Z"/>
        <path class="cls-1" d="M103.32,11.29c0-3.78,2.05-6.22,5.39-6.22s5.39,2.44,5.39,6.22-2.05,6.22-5.39,6.22-5.39-2.44-5.39-6.22ZM112.15,12.15v-1.7c0-2.56-1.38-3.78-3.43-3.78s-3.43,1.22-3.43,3.78v1.7c0,2.56,1.38,3.78,3.43,3.78s3.43-1.22,3.43-3.78Z"/>
        <path class="cls-1" d="M117.4,15.67h3.48V6.91h-3.48v-1.57h5.32v2.99h.11c.46-1.57,1.52-2.99,4.01-2.99h1.66v1.84h-2.24c-2.33,0-3.55,1.5-3.55,3.34v5.14h4.61v1.57h-9.93v-1.57h0Z"/>
        <path class="cls-1" d="M140.86,17.24c-1.43,0-1.98-.83-2.12-1.94h-.11c-.51,1.36-1.64,2.21-3.57,2.21-2.49,0-4.08-1.38-4.08-3.62s1.54-3.46,5.12-3.46h2.53v-1.18c0-1.73-1.04-2.63-2.83-2.63-1.59,0-2.56.67-3.18,1.75l-1.24-.92c.6-1.24,2.12-2.4,4.54-2.4,2.79,0,4.56,1.5,4.56,4.01v6.55h1.66v1.61h-1.27,0ZM138.62,13.78v-1.96h-2.53c-2.19,0-3.18.65-3.18,1.8v.49c0,1.22.94,1.87,2.47,1.87,1.89,0,3.25-.97,3.25-2.19h0Z"/>
        <path class="cls-1" d="M150.77,17.24c-1.8,0-2.63-1.13-2.63-2.72v-7.6h-3.96v-1.57h2.95c.78,0,1.08-.28,1.08-1.08V1.15h1.78v4.19h5.41v1.57h-5.41v8.76h5.41v1.57h-4.63Z"/>
        <path class="cls-1" d="M158.63,11.29c0-3.78,2.05-6.22,5.39-6.22s5.39,2.44,5.39,6.22-2.05,6.22-5.39,6.22-5.39-2.44-5.39-6.22ZM167.45,12.15v-1.7c0-2.56-1.38-3.78-3.43-3.78s-3.43,1.22-3.43,3.78v1.7c0,2.56,1.38,3.78,3.43,3.78s3.43-1.22,3.43-3.78Z"/>
        <path class="cls-1" d="M172.7,15.67h3.48V6.91h-3.48v-1.57h5.32v2.99h.11c.46-1.57,1.52-2.99,4.01-2.99h1.66v1.84h-2.24c-2.33,0-3.55,1.5-3.55,3.34v5.14h4.61v1.57h-9.93v-1.57h0Z"/>
        <path class="cls-1" d="M187.2,15.67h4.29V6.91h-4.29v-1.57h6.13v10.32h4.01v1.57h-10.14v-1.57h0ZM190.95,1.54v-.37c0-.67.39-1.18,1.45-1.18s1.45.51,1.45,1.18v.37c0,.67-.39,1.18-1.45,1.18s-1.45-.51-1.45-1.18Z"/>
        <path class="cls-1" d="M200.1,11.29c0-3.78,2.05-6.22,5.39-6.22s5.39,2.44,5.39,6.22-2.05,6.22-5.39,6.22-5.39-2.44-5.39-6.22ZM208.93,12.15v-1.7c0-2.56-1.38-3.78-3.43-3.78s-3.43,1.22-3.43,3.78v1.7c0,2.56,1.38,3.78,3.43,3.78s3.43-1.22,3.43-3.78Z"/>
      </g>
      <g>
        <rect class="cls-1" y=".17" width="53.02" height="53.02"/>
        <path class="cls-2" d="M29.53,48.48c-.16,0-.33-.04-.47-.13l-17.98-10.43c-.29-.17-.47-.48-.47-.82v-20.86c0-.34.18-.65.47-.82L29.07,5c.29-.17.65-.17.94,0l9.17,5.25c.45.26.61.84.35,1.29s-.84.61-1.29.35l-8.7-4.98-17.05,9.89v19.77l17.04,9.88,9.94-5.73-4.01-2.42-5.45,3.18c-.3.17-.67.17-.96,0l-11.72-7.04c-.28-.17-.46-.48-.46-.81v-13.91c0-.34.18-.65.47-.82l11.72-6.8c.45-.26,1.03-.11,1.29.34.26.45.11,1.03-.34,1.29l-11.25,6.52v12.83l10.78,6.48,4.08-2.38-4.57-2.76c-.28-.17-.46-.48-.46-.81v-6.8c0-.33.18-.64.46-.81l12.06-7.11c.29-.17.65-.18.95,0,.29.17.47.48.47.82v13.91c0,.34-.18.65-.47.82l-4.75,2.77,4.5,2.71c.29.17.46.48.46.82s-.18.64-.47.81l-11.79,6.8c-.14.08-.31.13-.47.13h-.01ZM30.47,33.1l5,3.01,5.17-3.02v-11.72l-10.17,5.99v5.73h0Z"/>
      </g>
    </g>
  </g>
</svg>