<?xml version="1.0" encoding="UTF-8"?>
<svg id="Layer_2" data-name="Layer 2" xmlns="http://www.w3.org/2000/svg" viewBox="0 0 400 61.9">
  <defs>
    <style>
      .cls-1 {
        fill: #000;
        stroke-width: 0px;
      }
    </style>
  </defs>
  <g id="Capa_1" data-name="Capa 1">
    <g>
      <g>
        <path class="cls-1" d="M34.43,42.04c-7.59,4.92-15.47,4.65-15.47,4.65,0,0-.22-1-.13-2.74.09-1.73,1.03-1.25,1.72-2.62.25-.5.46-.84.85-2.01.02-.05-.45-8.36-.57-11.88-.06-1.9-.42-5.07-.84-8.15-.25-1.83-.8-3.27-1.06-5.01-.37-2.5-.8-5.33-.8-5.33-.31.8-.75,3.78-1.2,7.15-.21,1.62-.43,3.32-.63,4.91-.42,3.37-1.48,12.41-1.64,12.9-.24.74-.27-.2-.27-.2,0,0,.62-9.47.81-13.63.09-2.03.24-4.26.5-6.41.19-1.61.44-3.17.75-4.55,0,0,1.08-3.28,1.43-3.34.35-.06,1.6,2.07,2.02,3.96.96,4.28,1.52,4.83,2.25,9.33.69,4.27,1.33,7.85,1.41,8.43.31,2.12.16,8.74-.38,11.37-.13.72-.16.98-.63,1.46-1.1,1.11-1.88,2.44-1.88,3.31s-.14.85.06,1.35c0,0,1.45,2.17,9.79-2.8,0,0,2.61-1.37,2.61-4.38V7.36s-8.27-2.8-14.64-2.8-14.34,2.79-14.34,2.79v30.35c0,1.87.27,5.37,2.94,6.57,0,0-7.1-2.43-7.1-6.6V4.77s10.84-2,18.51-2,18.7,2,18.7,2v32.92c0,2.84-2.78,4.35-2.78,4.35"/>
        <path class="cls-1" d="M137.47,16.57c-.76.42-1.78.63-3.06.63s-2.29-.39-3.01-1.17c-.72-.78-1.07-1.87-1.07-3.27s.36-2.53,1.07-3.37c.69-.8,1.62-1.21,2.77-1.21.51,0,.95.06,1.32.17v-3.54h1.98v11.75ZM135.49,15.74v-6.31c-.26-.08-.55-.11-.88-.11-1.54,0-2.31,1.11-2.31,3.33s.72,3.29,2.16,3.29c.48,0,.82-.07,1.03-.2"/>
        <path class="cls-1" d="M146.52,12.6l-5.37.78c.16,1.63.96,2.44,2.39,2.44.85,0,1.58-.16,2.21-.48l.47,1.25c-.75.41-1.71.62-2.89.62-1.26,0-2.25-.4-2.98-1.19-.73-.79-1.09-1.92-1.09-3.38s.33-2.53,1-3.32c.67-.8,1.58-1.19,2.74-1.19s2.06.38,2.67,1.15c.61.76.89,1.88.85,3.34M144.66,11.82c0-1.66-.58-2.49-1.73-2.49-.61,0-1.07.24-1.4.73-.36.53-.53,1.3-.5,2.31l3.63-.55Z"/>
        <rect class="cls-1" x="43.66" y="21.19" width="3.11" height="19.23"/>
        <path class="cls-1" d="M61.12,33.57c0,2.12-.47,3.81-1.4,5.07-1.02,1.36-2.46,2.04-4.31,2.04s-3.29-.68-4.31-2.04c-.93-1.26-1.4-2.95-1.4-5.07s.47-3.84,1.4-5.1c1.02-1.36,2.46-2.04,4.31-2.04s3.3.68,4.31,2.04c.93,1.26,1.4,2.96,1.4,5.1M58.03,33.54c0-3.43-.87-5.15-2.62-5.15s-2.62,1.72-2.62,5.15.87,5.02,2.62,5.02,2.62-1.68,2.62-5.02"/>
        <path class="cls-1" d="M71.78,36.47c0,1.16-.45,2.14-1.35,2.96-.9.81-2.08,1.22-3.54,1.22-1.56,0-2.83-.33-3.8-.99l.82-1.99c.66.53,1.52.79,2.58.79.63,0,1.14-.18,1.53-.55.39-.37.59-.83.59-1.39s-.15-1.03-.46-1.36c-.31-.33-.82-.63-1.55-.9-2.09-.8-3.13-2.08-3.13-3.85,0-1.12.4-2.06,1.21-2.83.81-.76,1.86-1.15,3.15-1.15,1.39,0,2.58.32,3.57.97l-.76,1.81c-.63-.51-1.36-.77-2.19-.77-.61,0-1.09.17-1.44.52-.35.35-.52.78-.52,1.29,0,.9.68,1.62,2.04,2.17,2.19.88,3.28,2.23,3.28,4.05"/>
        <path class="cls-1" d="M94.73,40.43h-3.63l-1.47-4.9h-6.15l-1.52,4.9h-3.16l6.32-19.07h3.32l6.29,19.07ZM89.13,33.47l-1.97-6.71c-.28-.94-.44-1.71-.5-2.3h-.05c-.09.5-.27,1.27-.53,2.3l-2.05,6.71h5.1Z"/>
        <path class="cls-1" d="M107.52,40.43h-3.11v-9.74c0-1.53-.82-2.29-2.47-2.29-.78,0-1.49.13-2.14.38v11.65h-3.11v-13c1.41-.66,3.2-.99,5.38-.99,1.92,0,3.34.42,4.26,1.27.8.71,1.2,1.69,1.2,2.93v9.79Z"/>
        <path class="cls-1" d="M121.54,39.68c-1.19.66-2.79.99-4.79.99s-3.6-.61-4.72-1.83c-1.12-1.22-1.68-2.93-1.68-5.12s.56-3.97,1.68-5.28c1.09-1.26,2.53-1.89,4.34-1.89.8,0,1.49.09,2.07.26v-5.56h3.11v18.43ZM118.43,38.38v-9.89c-.41-.12-.87-.18-1.38-.18-2.41,0-3.62,1.74-3.62,5.22s1.13,5.15,3.39,5.15c.75,0,1.28-.1,1.61-.31"/>
        <path class="cls-1" d="M135.7,33.47l-8.41,1.22c.25,2.55,1.5,3.82,3.75,3.82,1.33,0,2.48-.25,3.47-.76l.74,1.96c-1.17.64-2.69.97-4.54.97-1.97,0-3.53-.62-4.67-1.86-1.14-1.24-1.71-3.01-1.71-5.3s.52-3.96,1.57-5.21c1.05-1.25,2.48-1.87,4.3-1.87s3.23.6,4.18,1.8c.95,1.2,1.39,2.94,1.33,5.24M132.79,32.24c0-2.6-.9-3.9-2.7-3.9-.95,0-1.68.38-2.19,1.15-.56.83-.82,2.04-.79,3.62l5.69-.87Z"/>
        <path class="cls-1" d="M146.39,36.47c0,1.16-.45,2.14-1.35,2.96-.9.81-2.08,1.22-3.54,1.22-1.56,0-2.83-.33-3.8-.99l.82-1.99c.66.53,1.52.79,2.58.79.63,0,1.14-.18,1.53-.55.39-.37.59-.83.59-1.39s-.15-1.03-.46-1.36c-.31-.33-.82-.63-1.55-.9-2.09-.8-3.14-2.08-3.14-3.85,0-1.12.4-2.06,1.21-2.83.81-.76,1.86-1.15,3.15-1.15,1.39,0,2.58.32,3.57.97l-.76,1.81c-.63-.51-1.36-.77-2.19-.77-.61,0-1.09.17-1.44.52-.35.35-.52.78-.52,1.29,0,.9.68,1.62,2.04,2.17,2.19.88,3.29,2.23,3.29,4.05"/>
        <path class="cls-1" d="M60.07,17.07h-1.98v-6.21c0-.98-.53-1.46-1.58-1.46-.5,0-.95.08-1.37.24v7.43h-1.98v-8.29c.9-.42,2.04-.63,3.43-.63,1.22,0,2.13.27,2.71.81.51.45.76,1.08.76,1.87v6.24Z"/>
        <path class="cls-1" d="M64.34,5.81c0,.27-.11.5-.32.69-.21.19-.47.28-.77.28s-.56-.09-.77-.28c-.21-.19-.32-.42-.32-.69s.11-.5.32-.7c.21-.19.47-.29.77-.29s.56.1.77.28c.21.19.32.43.32.71M64.23,17.07h-1.98v-8.77h1.98v8.77Z"/>
        <path class="cls-1" d="M73.26,8.3l-2.81,8.77h-1.89l-2.86-8.77h2.11l1.55,5.66c.12.42.19.82.21,1.2h.03c.05-.31.13-.72.23-1.2l1.58-5.66h1.85Z"/>
        <path class="cls-1" d="M81.57,12.63l-5.37.78c.16,1.63.96,2.44,2.39,2.44.85,0,1.58-.16,2.21-.48l.47,1.25c-.75.41-1.71.62-2.89.62-1.26,0-2.25-.4-2.98-1.19-.73-.79-1.09-1.92-1.09-3.38s.33-2.53,1-3.32c.67-.8,1.58-1.2,2.74-1.2s2.06.38,2.67,1.15c.61.76.89,1.88.85,3.34M79.72,11.85c0-1.66-.58-2.49-1.73-2.49-.61,0-1.08.25-1.4.73-.36.53-.53,1.3-.5,2.31l3.63-.55Z"/>
        <path class="cls-1" d="M87.6,8.16l-.39,1.45c-.29-.1-.6-.15-.91-.15-.38,0-.7.07-.95.21v7.4h-1.98v-8.3c.97-.47,2.37-.67,4.23-.62"/>
        <path class="cls-1" d="M93.92,14.55c0,.74-.29,1.37-.86,1.89-.58.52-1.33.78-2.26.78-1,0-1.81-.21-2.42-.64l.52-1.27c.42.34.97.51,1.64.51.4,0,.73-.12.98-.35.25-.23.37-.53.37-.89s-.1-.66-.29-.87c-.2-.21-.53-.4-.99-.58-1.33-.51-2-1.33-2-2.46,0-.72.26-1.32.77-1.81.51-.49,1.18-.73,2.01-.73.89,0,1.65.21,2.28.62l-.49,1.15c-.4-.33-.87-.49-1.4-.49-.39,0-.7.11-.92.33-.22.22-.33.5-.33.82,0,.57.43,1.04,1.3,1.38,1.4.56,2.1,1.43,2.1,2.59"/>
        <path class="cls-1" d="M97.8,5.81c0,.27-.11.5-.32.69-.21.19-.47.28-.77.28s-.56-.09-.77-.28c-.21-.19-.32-.42-.32-.69s.11-.5.32-.7c.21-.19.47-.29.77-.29s.56.1.77.28c.21.19.32.43.32.71M97.69,17.07h-1.98v-8.77h1.98v8.77Z"/>
        <path class="cls-1" d="M106.7,16.6c-.76.42-1.78.63-3.06.63s-2.29-.39-3.01-1.17c-.72-.78-1.07-1.87-1.07-3.27s.36-2.53,1.07-3.37c.69-.8,1.62-1.2,2.77-1.2.51,0,.95.06,1.32.17v-3.54h1.98v11.75ZM104.72,15.77v-6.31c-.26-.08-.55-.11-.88-.11-1.54,0-2.31,1.11-2.31,3.33s.72,3.28,2.16,3.28c.48,0,.82-.07,1.02-.2"/>
        <path class="cls-1" d="M115.14,16.6c-.79.42-1.85.63-3.17.63-2.38,0-3.58-.89-3.58-2.67,0-1.06.48-1.86,1.45-2.39.76-.41,1.91-.69,3.45-.84v-.47c0-.96-.58-1.45-1.74-1.45-.73,0-1.46.18-2.19.53l-.46-1.14c.91-.44,1.91-.67,3.01-.67,2.16,0,3.23,1.01,3.23,3.02v5.43ZM113.29,15.89v-3.61c-1.04.13-1.77.33-2.21.6-.54.34-.81.88-.81,1.63,0,1.08.61,1.63,1.83,1.63.47,0,.86-.08,1.18-.24"/>
        <path class="cls-1" d="M124.07,16.6c-.76.42-1.78.63-3.06.63s-2.29-.39-3.01-1.17c-.72-.78-1.07-1.87-1.07-3.27s.36-2.53,1.07-3.37c.69-.8,1.62-1.2,2.77-1.2.51,0,.95.06,1.32.17v-3.54h1.98v11.75ZM122.09,15.77v-6.31c-.26-.08-.55-.11-.88-.11-1.54,0-2.31,1.11-2.31,3.33s.72,3.28,2.16,3.28c.48,0,.82-.07,1.02-.2"/>
        <path class="cls-1" d="M43.63,4.87h2.11v9.43c0,1.04.56,1.56,1.67,1.56.53,0,1.01-.09,1.45-.26V4.87h2.11v11.64c-.96.45-2.17.67-3.65.67-1.3,0-2.26-.29-2.89-.86-.54-.48-.81-1.15-.81-1.99V4.87Z"/>
        <path class="cls-1" d="M105.62,58.63c-.42.33-1.03.49-1.83.49-1.16,0-2.04-.49-2.64-1.47-.5-.81-.75-1.84-.75-3.07s.26-2.23.77-3.06c.61-.99,1.49-1.48,2.63-1.48.75,0,1.36.16,1.82.49l-.35.97c-.34-.2-.73-.31-1.15-.31-.76,0-1.31.4-1.65,1.2-.25.57-.38,1.3-.38,2.17s.13,1.55.4,2.14c.35.78.9,1.17,1.63,1.17.42,0,.79-.1,1.11-.31l.39,1.06Z"/>
        <path class="cls-1" d="M111.52,55.82c0,.93-.2,1.69-.6,2.26-.46.67-1.14,1.01-2.03,1.01s-1.57-.34-2.03-1.01c-.4-.58-.6-1.33-.6-2.26s.2-1.7.6-2.28c.45-.67,1.13-1.01,2.03-1.01s1.58.34,2.03,1.01c.4.58.6,1.34.6,2.28M110.1,55.8c0-1.58-.4-2.36-1.21-2.36s-1.21.79-1.21,2.36.4,2.3,1.21,2.3,1.21-.77,1.21-2.3"/>
        <rect class="cls-1" x="112.86" y="50.09" width="1.44" height="8.88"/>
        <path class="cls-1" d="M120.9,55.82c0,.93-.2,1.69-.6,2.26-.46.67-1.14,1.01-2.03,1.01s-1.57-.34-2.03-1.01c-.4-.58-.6-1.33-.6-2.26s.2-1.7.6-2.28c.45-.67,1.13-1.01,2.03-1.01s1.58.34,2.03,1.01c.4.58.6,1.34.6,2.28M119.48,55.8c0-1.58-.4-2.36-1.21-2.36s-1.21.79-1.21,2.36.4,2.3,1.21,2.3,1.21-.77,1.21-2.3"/>
        <path class="cls-1" d="M130.73,58.97h-1.43v-4.49c0-.69-.36-1.03-1.07-1.03-.42,0-.77.15-1.06.43v5.09h-1.43v-4.52c0-.67-.39-1.01-1.18-1.01-.34,0-.66.06-.94.18v5.35h-1.43v-5.98c.63-.3,1.42-.46,2.37-.46.89,0,1.55.23,1.97.69.5-.46,1.18-.69,2.03-.69.63,0,1.14.17,1.55.5.41.34.62.81.62,1.43v4.5Z"/>
        <path class="cls-1" d="M137.41,55.66c0,1.04-.25,1.86-.74,2.45-.53.65-1.31.97-2.32.97-.92,0-1.62-.15-2.09-.46v-8.53h1.42v2.72c.38-.17.79-.26,1.24-.26.82,0,1.45.32,1.9.97.39.56.59,1.27.59,2.12M135.99,55.75c0-1.57-.49-2.35-1.45-2.35-.34,0-.63.06-.86.19v4.5c.2.09.44.13.73.13,1.06,0,1.58-.82,1.58-2.47"/>
        <path class="cls-1" d="M140.24,50.85c0,.2-.08.37-.23.5-.16.13-.34.2-.55.2s-.4-.07-.55-.2c-.16-.13-.23-.3-.23-.5s.08-.37.23-.51c.16-.14.34-.2.55-.2s.39.07.55.2c.16.13.23.3.23.52M140.17,58.97h-1.44v-6.32h1.44v6.32Z"/>
        <path class="cls-1" d="M146.32,58.63c-.57.31-1.33.46-2.29.46-1.72,0-2.58-.64-2.58-1.92,0-.82.41-1.43,1.23-1.82.51-.24,1.27-.41,2.3-.52v-.34c0-.7-.42-1.04-1.26-1.04-.52,0-1.05.13-1.58.39l-.33-.82c.66-.32,1.38-.48,2.17-.48,1.56,0,2.34.73,2.34,2.18v3.92ZM144.98,58.12v-2.6c-.7.09-1.2.21-1.49.36-.47.25-.71.67-.71,1.24,0,.78.44,1.17,1.33,1.17.34,0,.62-.06.86-.18"/>
      </g>
      <rect class="cls-1" x="170.09" width=".93" height="61.9"/>
      <g>
        <path class="cls-1" d="M192.75,25.04v-9.25h6.11v1.04h-4.94v3.09h4.16v.98h-4.16v4.14h-1.17Z"/>
        <path class="cls-1" d="M202.44,15.79h.99l3.78,9.25h-1.25l-1.09-2.71h-3.88l-1.08,2.71h-1.25l3.79-9.25ZM204.61,21.42l-1.67-4.27-1.72,4.27h3.39Z"/>
        <path class="cls-1" d="M207.51,20.35c0-.56.1-1.11.29-1.66.2-.55.48-1.05.86-1.48.38-.44.84-.79,1.39-1.06.55-.27,1.17-.4,1.86-.4.82,0,1.53.19,2.12.56.59.37,1.03.86,1.32,1.46l-.92.6c-.14-.3-.31-.54-.5-.74-.2-.2-.41-.36-.64-.48-.23-.12-.47-.21-.71-.26-.24-.05-.48-.08-.72-.08-.51,0-.97.11-1.36.32-.39.21-.73.49-1,.83-.27.34-.47.73-.61,1.16-.13.43-.2.86-.2,1.3,0,.49.08.95.24,1.39.16.44.38.83.67,1.17.29.34.62.61,1.02.81.39.2.82.3,1.28.3.24,0,.49-.03.75-.09.26-.06.5-.16.74-.29.23-.13.45-.3.66-.51.2-.2.37-.45.5-.74l.98.53c-.15.35-.35.65-.62.92-.26.27-.56.49-.9.67s-.69.32-1.06.42c-.37.1-.74.14-1.09.14-.63,0-1.22-.14-1.75-.42s-.99-.64-1.37-1.09c-.39-.45-.69-.96-.9-1.52-.21-.57-.32-1.15-.32-1.74Z"/>
        <path class="cls-1" d="M220.8,24.05c.54,0,.99-.1,1.34-.31s.64-.48.85-.81.36-.72.45-1.15c.09-.43.13-.87.13-1.31v-4.68h1.17v4.68c0,.63-.07,1.22-.21,1.78s-.37,1.05-.68,1.48-.72.76-1.22,1.01c-.5.25-1.11.37-1.82.37s-1.36-.13-1.86-.39c-.5-.26-.91-.61-1.22-1.04-.31-.43-.53-.92-.66-1.48s-.2-1.14-.2-1.73v-4.68h1.17v4.68c0,.46.05.91.14,1.34s.24.81.46,1.14c.21.33.49.6.85.8.35.2.79.31,1.32.31Z"/>
        <path class="cls-1" d="M226.83,25.04v-9.25h1.17v8.21h5.16v1.04h-6.33Z"/>
        <path class="cls-1" d="M239.68,16.83h-3.19v8.21h-1.17v-8.21h-3.19v-1.04h7.55v1.04Z"/>
        <path class="cls-1" d="M242.95,15.79h.99l3.78,9.25h-1.25l-1.09-2.71h-3.88l-1.08,2.71h-1.25l3.79-9.25ZM245.11,21.42l-1.67-4.27-1.72,4.27h3.39Z"/>
        <path class="cls-1" d="M248.96,25.04v-9.25h3.2c.74,0,1.39.12,1.95.36.56.24,1.03.57,1.4.99.37.42.65.91.84,1.47.19.56.28,1.16.28,1.79,0,.7-.1,1.34-.31,1.91-.21.57-.51,1.06-.9,1.46-.39.4-.86.72-1.41.94-.55.22-1.17.33-1.84.33h-3.2ZM255.44,20.4c0-.52-.07-1-.21-1.44-.14-.44-.36-.81-.64-1.13-.28-.31-.63-.56-1.04-.74-.41-.18-.87-.27-1.39-.27h-2.03v7.16h2.03c.53,0,1-.09,1.41-.27.41-.18.76-.43,1.03-.76.27-.32.48-.7.63-1.14.14-.44.21-.91.21-1.43Z"/>
        <path class="cls-1" d="M261.58,25.04v-9.25h3.2c.74,0,1.39.12,1.95.36.56.24,1.03.57,1.4.99.37.42.65.91.84,1.47.19.56.28,1.16.28,1.79,0,.7-.1,1.34-.31,1.91-.21.57-.51,1.06-.9,1.46-.39.4-.86.72-1.41.94-.55.22-1.17.33-1.84.33h-3.2ZM268.06,20.4c0-.52-.07-1-.21-1.44-.14-.44-.36-.81-.64-1.13-.28-.31-.63-.56-1.04-.74-.41-.18-.87-.27-1.39-.27h-2.03v7.16h2.03c.53,0,1-.09,1.41-.27.41-.18.76-.43,1.03-.76.27-.32.48-.7.63-1.14.14-.44.21-.91.21-1.43Z"/>
        <path class="cls-1" d="M277.18,23.99v1.04h-6.28v-9.25h6.16v1.04h-4.99v3h4.34v.98h-4.34v3.19h5.11Z"/>
        <path class="cls-1" d="M196.36,32.73h2.67l4.68,12.82h-3.03l-.99-2.87h-3.99l-.97,2.87h-3.03l4.68-12.82ZM199.19,40.64l-1.5-4.53-1.53,4.53h3.03Z"/>
        <path class="cls-1" d="M204.97,45.55v-12.82h5.78c.6,0,1.16.13,1.67.38.51.25.95.58,1.33.99.37.41.66.87.88,1.39.21.52.32,1.04.32,1.57,0,.4-.05.78-.14,1.15-.1.37-.23.71-.42,1.04s-.4.62-.66.88-.55.48-.88.66l2.82,4.77h-3.34l-2.46-4.13h-1.93v4.13h-2.96ZM207.93,38.84h2.71c.35,0,.65-.17.9-.5.25-.33.38-.76.38-1.27s-.14-.95-.43-1.26c-.29-.31-.6-.47-.94-.47h-2.62v3.5Z"/>
        <path class="cls-1" d="M226.63,35.33h-3.9v10.22h-2.96v-10.22h-3.92v-2.6h10.78v2.6Z"/>
        <path class="cls-1" d="M237.09,42.95v2.6h-9.01v-12.82h8.85v2.6h-5.89v2.49h5.06v2.4h-5.06v2.73h6.05Z"/>
        <path class="cls-1" d="M246.31,36.49s-.16-.14-.38-.27-.49-.27-.81-.42-.68-.27-1.07-.38-.77-.16-1.16-.16c-1.06,0-1.59.36-1.59,1.07,0,.22.06.4.17.54.11.14.28.27.51.39.22.11.5.22.84.32.34.1.73.21,1.17.32.61.17,1.17.35,1.66.55.49.2.91.45,1.25.74.34.3.61.65.79,1.07s.28.93.28,1.52c0,.72-.14,1.33-.41,1.83-.27.5-.63.9-1.07,1.21-.45.31-.96.53-1.53.67s-1.17.21-1.79.21c-.47,0-.95-.04-1.44-.11s-.97-.18-1.44-.32c-.47-.14-.92-.3-1.36-.5-.44-.19-.85-.42-1.22-.67l1.3-2.58c.05.06.2.17.47.34.26.17.59.34.98.51.39.17.83.32,1.31.45s.97.2,1.46.2c1.05,0,1.57-.32,1.57-.96,0-.24-.08-.44-.23-.6-.16-.16-.37-.3-.65-.42-.28-.13-.6-.24-.98-.35-.38-.11-.79-.23-1.24-.36-.59-.18-1.1-.38-1.53-.59-.43-.21-.79-.45-1.07-.73-.28-.28-.49-.6-.63-.96-.14-.36-.21-.78-.21-1.26,0-.67.13-1.27.38-1.79.25-.52.6-.95,1.03-1.31.43-.35.94-.62,1.51-.8.57-.18,1.18-.27,1.81-.27.44,0,.88.04,1.32.13s.85.19,1.25.32.77.28,1.11.45c.34.17.66.34.95.51l-1.3,2.46Z"/>
        <path class="cls-1" d="M255.3,32.73l2.76,5.89,2.8-5.89h3.23l-4.57,8.45v4.37h-2.94v-4.41l-4.5-8.41h3.21Z"/>
        <path class="cls-1" d="M279.91,32.73v12.82h-2.96v-5.25h-5.11v5.25h-2.96v-12.82h2.96v4.96h5.11v-4.96h2.96Z"/>
        <path class="cls-1" d="M287.87,43.02c.51,0,.93-.11,1.28-.32.35-.21.63-.49.85-.84.22-.35.37-.75.46-1.2.09-.45.14-.91.14-1.38v-6.55h2.96v6.55c0,.89-.11,1.72-.33,2.49s-.57,1.44-1.03,2.02c-.46.58-1.05,1.03-1.77,1.36-.72.33-1.57.5-2.55.5s-1.9-.17-2.62-.52-1.31-.82-1.76-1.4c-.45-.58-.78-1.26-.99-2.03-.21-.77-.32-1.58-.32-2.42v-6.55h2.96v6.55c0,.49.05.96.14,1.41.1.45.25.84.47,1.19s.5.63.84.83.77.31,1.27.31Z"/>
        <path class="cls-1" d="M305.96,45.55v-7.67l-2.78,5.58h-1.59l-2.78-5.58v7.67h-2.96v-12.82h3.21l3.32,6.7,3.34-6.7h3.2v12.82h-2.96Z"/>
        <path class="cls-1" d="M314.86,32.73h2.67l4.68,12.82h-3.03l-.99-2.87h-3.99l-.97,2.87h-3.03l4.68-12.82ZM317.69,40.64l-1.5-4.53-1.53,4.53h3.03Z"/>
        <path class="cls-1" d="M326.43,38.22v7.33h-2.96v-12.82h2.31l5.98,7.53v-7.53h2.96v12.82h-2.38l-5.9-7.33Z"/>
        <path class="cls-1" d="M337.17,45.55v-12.82h2.96v12.82h-2.96Z"/>
        <path class="cls-1" d="M342.59,45.55v-12.82h4.78c1.06,0,1.99.17,2.78.51s1.46.79,1.99,1.37.94,1.25,1.21,2.03c.27.78.41,1.6.41,2.48,0,.97-.15,1.86-.45,2.64-.3.79-.73,1.46-1.29,2.02s-1.23.99-2.02,1.3c-.79.31-1.66.46-2.63.46h-4.78ZM350.75,39.12c0-.57-.08-1.08-.23-1.54s-.37-.86-.66-1.2c-.29-.34-.64-.6-1.06-.78-.42-.18-.9-.27-1.43-.27h-1.82v7.62h1.82c.54,0,1.02-.1,1.44-.29.42-.19.77-.46,1.06-.8.28-.34.5-.75.65-1.21.15-.46.23-.97.23-1.53Z"/>
        <path class="cls-1" d="M358.55,32.73h2.67l4.68,12.82h-3.03l-.99-2.87h-3.99l-.97,2.87h-3.03l4.68-12.82ZM361.38,40.64l-1.5-4.53-1.53,4.53h3.03Z"/>
        <path class="cls-1" d="M367.16,45.55v-12.82h4.78c1.06,0,1.99.17,2.78.51s1.46.79,1.99,1.37.94,1.25,1.21,2.03c.27.78.41,1.6.41,2.48,0,.97-.15,1.86-.45,2.64-.3.79-.73,1.46-1.29,2.02s-1.23.99-2.02,1.3c-.79.31-1.66.46-2.63.46h-4.78ZM375.32,39.12c0-.57-.08-1.08-.23-1.54s-.37-.86-.66-1.2c-.29-.34-.64-.6-1.06-.78-.42-.18-.9-.27-1.43-.27h-1.82v7.62h1.82c.54,0,1.02-.1,1.44-.29.42-.19.77-.46,1.06-.8.28-.34.5-.75.65-1.21.15-.46.23-.97.23-1.53Z"/>
        <path class="cls-1" d="M389.1,42.95v2.6h-9.01v-12.82h8.85v2.6h-5.89v2.49h5.06v2.4h-5.06v2.73h6.05Z"/>
        <path class="cls-1" d="M398.32,36.49s-.16-.14-.38-.27-.49-.27-.81-.42-.68-.27-1.07-.38-.77-.16-1.16-.16c-1.06,0-1.59.36-1.59,1.07,0,.22.06.4.17.54.11.14.28.27.51.39.22.11.5.22.84.32.34.1.73.21,1.17.32.61.17,1.17.35,1.66.55.49.2.91.45,1.25.74.34.3.61.65.79,1.07.19.42.28.93.28,1.52,0,.72-.14,1.33-.41,1.83-.27.5-.63.9-1.07,1.21-.45.31-.96.53-1.53.67s-1.17.21-1.79.21c-.47,0-.95-.04-1.44-.11s-.97-.18-1.44-.32c-.47-.14-.92-.3-1.36-.5-.44-.19-.85-.42-1.22-.67l1.3-2.58c.05.06.2.17.47.34.26.17.59.34.98.51.39.17.83.32,1.31.45s.97.2,1.46.2c1.05,0,1.57-.32,1.57-.96,0-.24-.08-.44-.23-.6-.16-.16-.37-.3-.65-.42-.28-.13-.6-.24-.98-.35-.38-.11-.79-.23-1.24-.36-.59-.18-1.1-.38-1.53-.59-.43-.21-.79-.45-1.07-.73-.28-.28-.49-.6-.63-.96-.14-.36-.21-.78-.21-1.26,0-.67.13-1.27.38-1.79.25-.52.6-.95,1.03-1.31.43-.35.94-.62,1.51-.8.57-.18,1.18-.27,1.81-.27.44,0,.88.04,1.32.13s.85.19,1.25.32.77.28,1.11.45c.34.17.66.34.95.51l-1.3,2.46Z"/>
      </g>
    </g>
  </g>
</svg>