<?xml version="1.0" encoding="UTF-8"?>
<svg id="Layer_2" data-name="Layer 2" xmlns="http://www.w3.org/2000/svg" viewBox="0 0 192.36 60">
  <defs>
    <style>
      .cls-1 {
        fill: #000;
        stroke-width: 0px;
      }
    </style>
  </defs>
  <g id="Capa_1" data-name="Capa 1">
    <g>
      <rect class="cls-1" width=".9" height="60"/>
      <g>
        <path class="cls-1" d="M24.91,23.43v-8.96h5.92v1.01h-4.78v2.99h4.03v.95h-4.03v4.02h-1.14Z"/>
        <path class="cls-1" d="M34.31,14.47h.96l3.66,8.96h-1.21l-1.06-2.63h-3.76l-1.05,2.63h-1.21l3.67-8.96ZM36.4,19.92l-1.62-4.14-1.67,4.14h3.28Z"/>
        <path class="cls-1" d="M39.22,18.89c0-.54.09-1.08.28-1.61s.47-1.01.83-1.44c.37-.42.81-.77,1.34-1.03.53-.26,1.13-.39,1.81-.39.8,0,1.49.18,2.06.54s1,.83,1.28,1.41l-.9.58c-.14-.29-.3-.53-.49-.72s-.4-.35-.62-.47c-.22-.12-.45-.2-.69-.25-.24-.05-.47-.08-.69-.08-.5,0-.94.1-1.32.31-.38.21-.71.48-.97.81s-.46.71-.59,1.12-.2.84-.2,1.26c0,.47.08.92.23,1.34.16.42.37.8.65,1.13s.61.59.98.78c.38.19.79.29,1.24.29.24,0,.48-.03.73-.09s.49-.15.71-.28c.23-.13.44-.29.64-.49.2-.2.36-.44.49-.71l.95.52c-.14.34-.34.63-.6.89s-.55.47-.87.65c-.32.18-.67.31-1.03.4-.36.09-.72.14-1.06.14-.62,0-1.18-.13-1.69-.4-.51-.27-.96-.62-1.33-1.05s-.66-.93-.87-1.48c-.21-.55-.31-1.11-.31-1.69Z"/>
        <path class="cls-1" d="M52.1,22.47c.52,0,.96-.1,1.3-.3.34-.2.62-.46.83-.79.21-.32.35-.69.44-1.11s.13-.84.13-1.27v-4.53h1.14v4.53c0,.61-.07,1.18-.21,1.72s-.36,1.02-.66,1.43c-.3.41-.7.74-1.18.98-.48.24-1.07.36-1.76.36s-1.32-.13-1.8-.38c-.49-.25-.88-.59-1.18-1s-.51-.9-.64-1.44c-.13-.54-.2-1.1-.2-1.67v-4.53h1.14v4.53c0,.45.04.88.13,1.29.09.42.24.79.44,1.1.21.32.48.58.82.78.34.2.77.3,1.28.3Z"/>
        <path class="cls-1" d="M57.94,23.43v-8.96h1.14v7.95h5v1.01h-6.14Z"/>
        <path class="cls-1" d="M70.4,15.48h-3.09v7.95h-1.14v-7.95h-3.09v-1.01h7.32v1.01Z"/>
        <path class="cls-1" d="M73.57,14.47h.96l3.66,8.96h-1.21l-1.06-2.63h-3.76l-1.05,2.63h-1.21l3.67-8.96ZM75.67,19.92l-1.62-4.14-1.67,4.14h3.28Z"/>
        <path class="cls-1" d="M79.39,23.43v-8.96h3.11c.71,0,1.34.12,1.89.35.54.24,1,.56,1.36.96.36.4.63.88.81,1.42.18.54.27,1.12.27,1.74,0,.68-.1,1.3-.3,1.85-.2.55-.49,1.02-.87,1.41-.38.39-.84.69-1.37.91-.53.21-1.13.32-1.79.32h-3.11ZM85.68,18.94c0-.51-.07-.97-.21-1.4-.14-.42-.35-.79-.62-1.09-.27-.3-.61-.54-1-.71-.4-.17-.85-.26-1.35-.26h-1.97v6.94h1.97c.51,0,.97-.09,1.37-.27s.73-.42,1-.73c.27-.31.47-.68.61-1.1.14-.42.21-.89.21-1.38Z"/>
        <path class="cls-1" d="M91.62,23.43v-8.96h3.11c.71,0,1.34.12,1.89.35.54.24,1,.56,1.36.96.36.4.63.88.81,1.42.18.54.27,1.12.27,1.74,0,.68-.1,1.3-.3,1.85-.2.55-.49,1.02-.87,1.41-.38.39-.84.69-1.37.91-.53.21-1.13.32-1.79.32h-3.11ZM97.91,18.94c0-.51-.07-.97-.21-1.4-.14-.42-.35-.79-.62-1.09-.27-.3-.61-.54-1-.71-.4-.17-.85-.26-1.35-.26h-1.97v6.94h1.97c.51,0,.97-.09,1.37-.27s.73-.42,1-.73c.27-.31.47-.68.61-1.1.14-.42.21-.89.21-1.38Z"/>
        <path class="cls-1" d="M106.75,22.42v1.01h-6.09v-8.96h5.97v1.01h-4.84v2.9h4.2v.95h-4.2v3.09h4.95Z"/>
        <path class="cls-1" d="M24.31,37c0-.75.14-1.49.42-2.23s.69-1.4,1.23-1.99c.54-.58,1.19-1.06,1.96-1.42.77-.36,1.65-.54,2.63-.54,1.17,0,2.18.25,3.04.75.86.5,1.5,1.15,1.92,1.96l-2.2,1.54c-.14-.33-.32-.6-.53-.81-.22-.22-.45-.39-.71-.53-.26-.13-.52-.23-.79-.28-.27-.05-.53-.08-.79-.08-.55,0-1.03.11-1.43.33s-.75.51-1.01.86-.47.75-.59,1.19c-.13.44-.19.89-.19,1.35,0,.49.08.96.23,1.42s.37.86.66,1.21.63.63,1.03.83.85.31,1.36.31c.26,0,.52-.03.8-.1.27-.06.54-.16.79-.3.25-.13.48-.31.69-.52.21-.22.38-.48.51-.8l2.34,1.38c-.19.46-.46.86-.83,1.22-.37.36-.79.67-1.27.91-.48.24-.99.43-1.52.56-.54.13-1.06.19-1.57.19-.9,0-1.72-.18-2.48-.55s-1.4-.85-1.94-1.46c-.54-.61-.96-1.29-1.26-2.06-.3-.77-.45-1.55-.45-2.35Z"/>
        <path class="cls-1" d="M37.07,43.32v-12.42h2.87v12.42h-2.87Z"/>
        <path class="cls-1" d="M51.05,40.8v2.52h-8.73v-12.42h8.57v2.52h-5.7v2.41h4.9v2.33h-4.9v2.64h5.86Z"/>
        <path class="cls-1" d="M55.67,36.21v7.1h-2.87v-12.42h2.24l5.79,7.3v-7.3h2.87v12.42h-2.31l-5.72-7.1Z"/>
        <path class="cls-1" d="M65.37,37c0-.75.14-1.49.42-2.23s.69-1.4,1.23-1.99c.54-.58,1.19-1.06,1.96-1.42.77-.36,1.65-.54,2.63-.54,1.17,0,2.18.25,3.04.75.86.5,1.5,1.15,1.92,1.96l-2.2,1.54c-.14-.33-.32-.6-.53-.81-.22-.22-.45-.39-.71-.53-.26-.13-.52-.23-.79-.28-.27-.05-.53-.08-.79-.08-.55,0-1.03.11-1.43.33s-.75.51-1.01.86-.47.75-.59,1.19c-.13.44-.19.89-.19,1.35,0,.49.08.96.23,1.42s.37.86.66,1.21.63.63,1.03.83.85.31,1.36.31c.26,0,.52-.03.8-.1.27-.06.54-.16.79-.3.25-.13.48-.31.69-.52.21-.22.38-.48.51-.8l2.34,1.38c-.19.46-.46.86-.83,1.22-.37.36-.79.67-1.27.91-.48.24-.99.43-1.52.56-.54.13-1.06.19-1.57.19-.9,0-1.72-.18-2.48-.55s-1.4-.85-1.94-1.46c-.54-.61-.96-1.29-1.26-2.06-.3-.77-.45-1.55-.45-2.35Z"/>
        <path class="cls-1" d="M78.12,43.32v-12.42h2.87v12.42h-2.87Z"/>
        <path class="cls-1" d="M86.75,30.89h2.59l4.53,12.42h-2.94l-.96-2.78h-3.87l-.94,2.78h-2.94l4.53-12.42ZM89.5,38.56l-1.45-4.39-1.49,4.39h2.94Z"/>
        <path class="cls-1" d="M102.36,34.53s-.16-.13-.37-.26c-.21-.13-.47-.26-.79-.4s-.66-.26-1.03-.37-.75-.16-1.12-.16c-1.03,0-1.54.34-1.54,1.03,0,.21.06.39.17.53.11.14.27.27.49.38.22.11.49.21.81.31.33.09.71.2,1.14.31.59.16,1.13.34,1.61.53.48.19.88.43,1.22.72.33.29.59.63.77,1.04.18.41.27.9.27,1.47,0,.7-.13,1.29-.39,1.78s-.61.87-1.04,1.17c-.43.3-.93.51-1.49.65-.56.13-1.14.2-1.73.2-.45,0-.92-.04-1.4-.11-.48-.07-.94-.17-1.4-.31-.46-.13-.9-.29-1.32-.48-.43-.19-.82-.4-1.18-.65l1.26-2.5c.05.06.2.17.45.33.26.16.57.33.95.49.38.16.8.31,1.27.44.47.13.94.19,1.42.19,1.01,0,1.52-.31,1.52-.93,0-.23-.08-.43-.23-.58-.15-.15-.36-.29-.63-.41s-.59-.24-.95-.34c-.37-.1-.77-.22-1.2-.35-.57-.17-1.07-.36-1.49-.57-.42-.2-.77-.44-1.04-.71-.27-.27-.48-.58-.61-.93s-.2-.76-.2-1.22c0-.65.12-1.23.37-1.73.25-.5.58-.92,1-1.27s.91-.6,1.46-.78c.55-.18,1.14-.26,1.76-.26.43,0,.86.04,1.28.12s.82.19,1.21.31c.39.13.74.27,1.08.44.33.16.64.33.92.49l-1.26,2.38Z"/>
        <path class="cls-1" d="M117.2,34.53s-.16-.13-.37-.26c-.21-.13-.47-.26-.79-.4s-.66-.26-1.03-.37-.75-.16-1.12-.16c-1.03,0-1.54.34-1.54,1.03,0,.21.06.39.17.53.11.14.27.27.49.38.22.11.49.21.81.31.33.09.71.2,1.14.31.59.16,1.13.34,1.61.53.48.19.88.43,1.22.72.33.29.59.63.77,1.04.18.41.27.9.27,1.47,0,.7-.13,1.29-.39,1.78s-.61.87-1.04,1.17c-.43.3-.93.51-1.49.65-.56.13-1.14.2-1.73.2-.45,0-.92-.04-1.4-.11-.48-.07-.94-.17-1.4-.31-.46-.13-.9-.29-1.32-.48-.43-.19-.82-.4-1.18-.65l1.26-2.5c.05.06.2.17.45.33.26.16.57.33.95.49.38.16.8.31,1.27.44.47.13.94.19,1.42.19,1.01,0,1.52-.31,1.52-.93,0-.23-.08-.43-.23-.58-.15-.15-.36-.29-.63-.41s-.59-.24-.95-.34c-.37-.1-.77-.22-1.2-.35-.57-.17-1.07-.36-1.49-.57-.42-.2-.77-.44-1.04-.71-.27-.27-.48-.58-.61-.93s-.2-.76-.2-1.22c0-.65.12-1.23.37-1.73.25-.5.58-.92,1-1.27s.91-.6,1.46-.78c.55-.18,1.14-.26,1.76-.26.43,0,.86.04,1.28.12s.82.19,1.21.31c.39.13.74.27,1.08.44.33.16.64.33.92.49l-1.26,2.38Z"/>
        <path class="cls-1" d="M125.95,43.42c-.92,0-1.76-.18-2.52-.54-.76-.36-1.41-.84-1.94-1.43s-.95-1.26-1.25-2.02-.45-1.54-.45-2.35.15-1.6.46-2.36c.31-.76.74-1.43,1.29-2,.55-.58,1.21-1.04,1.97-1.38.76-.34,1.59-.52,2.49-.52s1.76.18,2.52.54c.76.36,1.41.84,1.94,1.43.54.6.95,1.27,1.24,2.03s.44,1.53.44,2.31-.16,1.6-.46,2.36-.74,1.43-1.29,2-1.2,1.04-1.96,1.39c-.76.35-1.59.52-2.49.52ZM122.71,37.12c0,.48.07.94.21,1.39s.35.85.62,1.2.62.63,1.02.84c.41.21.87.32,1.4.32s1.03-.11,1.43-.33.75-.51,1.01-.87.47-.76.6-1.21c.13-.45.2-.91.2-1.37s-.07-.94-.21-1.39-.35-.85-.63-1.19c-.28-.34-.62-.62-1.02-.82s-.87-.31-1.39-.31-1.02.11-1.43.32c-.4.22-.74.5-1.01.85s-.48.75-.61,1.2c-.13.45-.2.91-.2,1.37Z"/>
        <path class="cls-1" d="M133.09,37c0-.75.14-1.49.42-2.23s.69-1.4,1.23-1.99c.54-.58,1.19-1.06,1.96-1.42.77-.36,1.65-.54,2.63-.54,1.17,0,2.18.25,3.04.75.86.5,1.5,1.15,1.92,1.96l-2.2,1.54c-.14-.33-.32-.6-.53-.81-.22-.22-.45-.39-.71-.53-.26-.13-.52-.23-.79-.28-.27-.05-.53-.08-.79-.08-.55,0-1.03.11-1.43.33s-.75.51-1.01.86-.47.75-.59,1.19c-.13.44-.19.89-.19,1.35,0,.49.08.96.23,1.42s.37.86.66,1.21.63.63,1.03.83.85.31,1.36.31c.26,0,.52-.03.8-.1.27-.06.54-.16.79-.3.25-.13.48-.31.69-.52.21-.22.38-.48.51-.8l2.34,1.38c-.19.46-.46.86-.83,1.22-.37.36-.79.67-1.27.91-.48.24-.99.43-1.52.56-.54.13-1.06.19-1.57.19-.9,0-1.72-.18-2.48-.55s-1.4-.85-1.94-1.46c-.54-.61-.96-1.29-1.26-2.06-.3-.77-.45-1.55-.45-2.35Z"/>
        <path class="cls-1" d="M145.84,43.32v-12.42h2.87v12.42h-2.87Z"/>
        <path class="cls-1" d="M154.47,30.89h2.59l4.53,12.42h-2.94l-.96-2.78h-3.87l-.94,2.78h-2.94l4.53-12.42ZM157.22,38.56l-1.45-4.39-1.49,4.39h2.94Z"/>
        <path class="cls-1" d="M162.82,43.32v-12.42h2.87v9.9h6.02v2.52h-8.89Z"/>
        <path class="cls-1" d="M181.79,40.8v2.52h-8.73v-12.42h8.57v2.52h-5.7v2.41h4.9v2.33h-4.9v2.64h5.86Z"/>
        <path class="cls-1" d="M190.73,34.53s-.16-.13-.37-.26c-.21-.13-.47-.26-.79-.4s-.66-.26-1.03-.37-.75-.16-1.12-.16c-1.03,0-1.54.34-1.54,1.03,0,.21.06.39.17.53.11.14.27.27.49.38.22.11.49.21.81.31.33.09.71.2,1.14.31.59.16,1.13.34,1.61.53.48.19.88.43,1.22.72.33.29.59.63.77,1.04.18.41.27.9.27,1.47,0,.7-.13,1.29-.39,1.78s-.61.87-1.04,1.17c-.43.3-.93.51-1.49.65-.56.13-1.14.2-1.73.2-.45,0-.92-.04-1.4-.11-.48-.07-.94-.17-1.4-.31-.46-.13-.9-.29-1.32-.48-.43-.19-.82-.4-1.18-.65l1.26-2.5c.05.06.2.17.45.33.26.16.57.33.95.49.38.16.8.31,1.27.44.47.13.94.19,1.42.19,1.01,0,1.52-.31,1.52-.93,0-.23-.08-.43-.23-.58-.15-.15-.36-.29-.63-.41s-.59-.24-.95-.34c-.37-.1-.77-.22-1.2-.35-.57-.17-1.07-.36-1.49-.57-.42-.2-.77-.44-1.04-.71-.27-.27-.48-.58-.61-.93s-.2-.76-.2-1.22c0-.65.12-1.23.37-1.73.25-.5.58-.92,1-1.27s.91-.6,1.46-.78c.55-.18,1.14-.26,1.76-.26.43,0,.86.04,1.28.12s.82.19,1.21.31c.39.13.74.27,1.08.44.33.16.64.33.92.49l-1.26,2.38Z"/>
      </g>
    </g>
  </g>
</svg>