<svg width="78" height="71" viewBox="0 0 78 71" fill="none" xmlns="http://www.w3.org/2000/svg">
<path d="M65.1785 0.640189C65.6763 0.796732 65.7481 1.14487 65.7481 1.57712C65.7413 10.9861 65.7391 20.3951 65.7481 29.8041C65.7481 30.8742 65.6315 31.9536 65.8781 33.0261C66.0261 33.1803 66.1854 33.3462 66.3154 33.4817C66.6226 33.5261 66.9231 33.6593 67.1676 33.5868C67.4681 33.4957 67.7506 33.5565 68.0377 33.5331C68.3337 33.5074 68.6342 33.5284 68.9324 33.5284C69.2307 33.5284 69.5289 33.5237 69.8272 33.5284C70.2824 33.5378 70.6928 33.8041 70.7735 34.185C70.8408 34.4934 70.8857 34.8111 70.8857 35.1266C70.8924 38.8018 70.8901 42.4748 70.8901 46.1501C71.0112 46.4772 71.2332 46.6874 71.5405 46.8323C71.8051 46.9585 71.9979 47.1734 72.128 47.4608C72.2491 47.7272 72.4083 47.9842 72.7066 48.0753C72.9734 48.1548 73.1551 48.3697 73.2806 48.58C73.469 48.8978 73.7426 49.1174 73.9646 49.3931C74.1911 49.3931 74.4154 49.3767 74.6374 49.3978C74.902 49.4211 75.1823 49.4281 75.4222 49.5309C75.5702 49.594 75.7474 49.6641 75.8393 49.9118C75.9806 50.288 76.2721 50.587 76.631 50.8043C76.8328 50.9258 76.9853 51.1384 77.1759 51.3253C77.0862 52.3417 77.3015 53.3838 77.0391 54.3604C76.6736 54.6408 76.3439 54.8955 76.1174 55.0707C75.8752 55.6245 75.9335 56.0847 75.9313 56.538C75.9268 57.4329 75.9313 58.3254 75.9313 59.2203C75.7496 59.5427 75.5568 59.8371 75.2159 60.024C75.0119 60.1339 74.81 60.3395 74.7136 60.5521C74.5791 60.8488 74.357 61.0708 74.1283 61.218C73.7269 61.4797 73.4825 61.8465 73.2403 62.2367C73.1618 62.3629 73.0586 62.4703 72.9779 62.5731C72.4083 62.5918 71.8567 62.5077 71.1458 62.8091C70.8565 63.0404 70.7332 63.697 70.1793 63.989C69.6612 64.2624 69.511 64.982 68.9122 65.2578C67.495 65.2578 66.0418 65.2998 64.5887 65.2391C63.9159 65.211 63.5056 65.5521 63.1804 66.0381C63.0077 66.2975 62.8216 66.4984 62.5682 66.6293C62.3148 66.7601 62.1354 66.933 62.021 67.204C61.8887 67.5171 61.6689 67.7648 61.3572 67.898C61.1128 68.0031 60.9491 68.1854 60.8123 68.412C60.458 68.9961 60.4535 68.9914 59.9355 69.3419C59.8323 69.412 59.6933 69.4751 59.644 69.5802C59.4578 69.9728 59.1035 70.1947 58.8591 70.5078H1.89268C1.41278 70.426 1.22889 70.1059 1.07865 69.8022C0.946338 69.5335 0.76021 69.3489 0.518019 69.2461C0.123338 69.0756 0.00897003 68.7625 0 68.3419C0.282556 68.0919 0.589779 67.8512 0.856638 67.5709C1.1235 67.2905 1.35223 66.9657 1.59667 66.6596C1.85231 66.6596 2.0945 66.6783 2.33445 66.655C2.59682 66.6269 2.86592 66.5942 3.1126 66.5008C3.28752 66.433 3.4871 66.2975 3.57231 66.1339C3.77862 65.7367 3.98494 65.3886 4.43568 65.232C4.5949 65.176 4.70926 64.94 4.81691 64.7694C5.03443 64.426 5.28335 64.1222 5.61972 63.9003C5.80137 63.7811 5.9718 63.6456 6.14895 63.5147V62.1409C6.32611 61.725 6.54588 61.4633 6.96971 61.2974C7.13341 61.2974 7.39355 61.2787 7.65143 61.3021C8.16048 61.3465 8.52601 61.1596 8.73905 60.5965C8.73905 60.3138 8.73456 59.9656 8.73905 59.6152C8.74802 59.1222 9.11355 58.725 9.58448 58.7366C10.0397 58.7483 10.4725 58.6712 10.8919 58.496C10.9412 58.475 10.9793 58.4352 11.0197 58.4049C11.1094 58.2203 11.1946 58.0427 11.3134 57.7974C11.3134 57.6432 11.3291 57.4119 11.3112 57.1829C11.2664 56.6549 11.4458 56.2717 11.9884 56.0474H12.3114C31.0296 56.0474 49.75 56.0474 68.4682 56.0404C68.8607 56.0404 69.1836 56.1245 69.4258 56.4516C69.4774 56.5193 69.493 56.6151 69.5469 56.7483V57.8511C69.6949 58.1035 69.8429 58.3535 69.9774 58.5778C70.9955 58.6806 71.9665 58.8862 72.9824 58.6525C73.0497 58.5614 73.1259 58.475 73.1842 58.3792C73.2403 58.288 73.2806 58.1876 73.3771 57.996C73.4062 57.9072 73.2649 57.6759 73.46 57.5053C73.4892 57.4796 73.4847 57.3862 73.4645 57.3371C73.238 56.7413 73.3883 56.1245 73.3614 55.517C73.3345 54.9165 73.3703 54.3114 73.3457 53.7109C73.3367 53.5076 73.5767 53.3721 73.4286 53.1314C73.3412 52.9866 73.3569 52.774 73.3232 52.5754C73.09 52.3464 72.8837 52.059 72.5249 51.9515C72.4083 51.9165 72.285 51.7553 72.2424 51.6244C72.128 51.2833 71.8701 51.0753 71.6369 50.8137H71.2826C71.1951 50.9165 71.0718 51.0169 70.9843 51.2038C70.8116 51.5707 70.5336 51.8604 70.186 52.0941C69.9348 52.2623 69.7375 52.538 69.5536 52.795C69.289 53.1665 68.9885 53.3721 68.5153 53.3721C64.037 53.3581 59.5565 53.3628 55.1074 53.3628C54.5086 53.1712 54.3786 52.5123 53.8919 52.1875C53.5376 52.1922 53.2685 52.4398 53.0981 52.7436C52.9433 53.0216 52.7326 53.1899 52.4522 53.3534H17.1058C16.5901 53.4422 16.5475 53.9188 16.247 54.1174C16.2223 54.3815 15.9711 54.4609 15.8635 54.6455H15.5428C15.2042 54.4375 15.1347 53.9749 14.8387 53.7156C14.5382 53.4539 14.2108 53.2249 13.9192 53.0006C13.686 51.8487 13.8004 50.7109 13.7847 49.5823C13.769 48.4351 13.7802 47.2879 13.7802 46.1407V36.9841C13.7802 36.4794 13.8161 35.97 13.769 35.4677C13.7241 34.9817 13.9215 34.5331 13.8901 34.0635C14.0246 33.9233 14.1569 33.7878 14.296 33.6452C14.9665 33.6966 15.628 33.477 16.3142 33.5214C17.0027 33.5658 17.6956 33.5308 18.4244 33.5308C18.7788 33.213 18.9312 32.7784 18.9312 32.2761C18.9312 30.234 18.9312 28.1942 18.9312 26.1311C19.2743 25.6779 19.9538 25.5797 20.1624 24.8741C20.1624 19.8998 20.1601 14.846 20.1669 9.79216C20.1669 9.19636 19.974 8.7571 19.4694 8.44168C19.2497 8.30383 19.0927 8.05382 18.929 7.87859C18.929 5.6823 18.929 3.54676 18.929 1.40889C18.929 0.960286 19.1263 0.780377 19.4784 0.637852C19.7318 0.535047 19.9964 0.516355 20.2723 0.516355C29.3813 0.521028 38.4881 0.521028 47.5972 0.521028C53.0869 0.511682 58.5743 0.516355 64.0617 0.5C64.4676 0.5 64.8443 0.668226 65.1785 0.640189ZM17.588 50.0707C17.7584 50.2786 17.9311 50.4912 18.1015 50.7015C18.4603 50.8324 18.8079 50.788 19.151 50.788C24.7864 50.788 30.4241 50.788 36.0595 50.788C36.9363 50.788 37.8132 50.802 38.69 50.7833C39.5511 50.7646 40.4212 50.8978 41.3115 50.6314C41.381 50.559 41.4998 50.4609 41.5873 50.337C41.668 50.2225 41.7039 50.073 41.7801 49.9562C41.8362 49.8697 41.9259 49.8066 42.0044 49.7389C42.1905 49.5847 42.4081 49.6104 42.6772 49.6361C42.8521 49.8954 43.0449 50.1828 43.2647 50.5123C43.5831 50.6945 43.9599 50.8113 44.3859 50.795C44.9824 50.7716 45.5812 50.795 46.1777 50.788C46.6307 50.7833 47.0904 50.8534 47.5905 50.6197C47.7026 50.4959 47.8708 50.316 48.0457 50.1244C48.0457 48.1034 48.0524 46.0613 48.0412 44.0215C48.039 43.4421 48.2408 43.0052 48.7543 42.7668C48.945 42.6781 49.0616 42.5566 49.1737 42.372C49.3509 42.0752 49.5146 41.7528 49.7881 41.5916H50.1739C50.3219 41.8019 50.5013 41.9958 50.6134 42.2271C50.8219 42.6594 51.1269 42.8626 51.5934 42.8603C53.6094 42.8533 55.6254 42.858 57.6392 42.858C58.3298 42.858 59.0205 42.879 59.7112 42.8486C60.0768 42.8323 60.4311 42.7645 60.6195 42.3182C60.7383 42.0355 60.9895 41.8136 61.1734 41.5752H61.5815C61.7003 41.7481 61.8573 41.9304 61.965 42.143C62.1219 42.4514 62.3305 42.7131 62.6399 42.8229C62.9135 42.921 63.0503 43.1383 63.1311 43.3673C63.214 43.601 63.2948 43.8486 63.2813 44.1243C63.2566 44.5893 63.2679 45.0566 63.2768 45.5239C63.288 46.1197 63.0593 46.587 62.5323 46.8089C62.2542 46.9258 62.1152 47.1501 62.0614 47.3674C61.9582 47.7786 61.9605 48.2178 61.9336 48.5146C62.086 49.0263 62.3865 49.2786 62.6758 49.4842C62.8911 49.6384 63.1131 49.8043 63.2342 50.0099C63.4405 50.3627 63.7074 50.6057 64.046 50.788C64.6246 50.788 65.2031 50.7693 65.7817 50.7973C66.0463 50.809 66.275 50.7109 66.5015 50.6244C66.8828 50.4795 67.0891 50.1805 67.0868 49.7272C67.0824 45.8603 67.0846 41.9911 67.0846 38.1827C66.885 37.9724 66.7146 37.7948 66.4926 37.5612C66.0329 37.5401 65.5059 37.5074 64.9811 37.4911C64.5707 37.4794 64.1604 37.4864 63.75 37.4911C63.2992 37.4934 62.8395 37.4327 62.3372 37.6897C62.2363 37.8299 62.0524 38.0238 61.9425 38.2551C61.7385 38.692 61.4312 38.8976 60.967 38.893C59.8099 38.8836 58.6528 38.8906 57.4956 38.8906H51.0866C50.8892 39.1476 50.6448 39.3906 50.4968 39.685C50.3689 39.9397 50.1896 40.0705 49.9631 40.1734C49.6312 40.0776 49.4159 39.8416 49.2836 39.5238C49.1625 39.2318 48.9629 39.0215 48.6983 38.8953C48.3911 38.7504 48.1915 38.5285 48.0435 38.2131C47.8215 37.7411 47.4425 37.4887 46.9245 37.4887C46.7563 37.4887 46.5881 37.5028 46.4199 37.4864C46.0409 37.4444 45.6911 37.3579 45.5296 36.9186C45.4623 36.7364 45.3166 36.5822 45.2269 36.4443H44.4756C44.3658 36.6172 44.2267 36.7901 44.1348 36.9887C44.0271 37.22 43.8814 37.3953 43.6549 37.4864C43.3746 37.5986 43.1907 37.8252 43.009 38.0168C43.009 38.4257 42.9933 38.7948 43.0135 39.164C43.0382 39.6406 42.8588 39.9444 42.3677 40.0635C42.0874 39.9537 41.8497 39.7621 41.6568 39.4724C41.5066 39.2481 41.2778 39.0799 41.085 38.8883C40.8495 38.657 40.5602 38.4794 40.4324 38.1406C40.2418 37.6359 39.8449 37.4747 39.365 37.4887C38.1697 37.5261 36.9655 37.3743 35.8263 37.6149C35.6648 37.7715 35.528 37.9 35.3868 38.0355V39.428C35.2589 39.6056 35.1311 39.7808 35.0257 39.928H34.3888C34.2722 39.7551 34.1646 39.5612 34.0233 39.393C33.8394 39.1733 33.6623 38.9163 33.4246 38.7855C33.0815 38.5962 32.846 38.3205 32.7204 37.9794C32.6374 37.7504 32.467 37.7177 32.3302 37.6429C32.1508 37.5448 31.9243 37.4887 31.7225 37.4958C30.9914 37.5215 30.2514 37.3719 29.4845 37.6336C29.3387 37.8275 29.0786 37.9794 28.962 38.2808C28.8969 38.4467 28.7871 38.6476 28.6458 38.7154C28.4462 38.8088 28.2309 38.9093 27.9865 38.893C27.6725 38.8696 27.3541 38.8883 27.0379 38.8883C26.6948 38.9771 26.5916 39.2948 26.4279 39.5565C26.3113 39.7411 26.1701 39.9093 26.0691 40.0425H25.5399C25.4592 39.907 25.3672 39.7691 25.291 39.6243C25.0981 39.2504 24.8246 38.9514 24.459 38.7831C24.2751 38.699 24.1518 38.5939 24.0823 38.4163C23.9679 38.1336 23.793 37.9046 23.5665 37.7294H23.0171C22.7166 37.9817 22.5888 38.2878 22.6179 38.6803C22.6426 39.0075 22.6224 39.3369 22.6224 39.6617C22.4744 39.7995 22.3556 39.9771 22.1963 40.0425C21.9519 40.143 21.6828 40.2107 21.407 40.1734C21.333 40.164 21.2567 40.1734 21.1827 40.1734C20.7275 40.1593 20.3597 39.9701 20.1646 39.5308C19.9673 39.0892 19.6601 38.8766 19.1936 38.8883C18.8595 38.8976 18.5254 38.8883 18.2921 38.8883C17.8885 39.0261 17.6867 39.2388 17.6418 39.5846C17.6194 39.7505 17.5857 39.9163 17.5857 40.0846C17.5813 43.3883 17.5835 46.6945 17.5835 50.0683L17.588 50.0707ZM40.4324 27.5634C40.2149 28.1475 39.8404 28.283 39.3358 28.2807C34.3709 28.269 29.4082 28.2737 24.4433 28.2737C24.0083 28.2737 23.5665 28.2153 23.0732 28.4489C22.9139 28.5751 22.748 28.8087 22.6179 29.0868C22.5529 29.227 22.4228 29.3672 22.2905 29.4302C22.0192 29.5587 21.8061 29.7433 21.6223 29.9723V30.5214C21.7254 30.6429 21.8129 30.7457 21.8532 30.7901C22.3645 31.0237 22.8444 30.9513 23.3153 30.9536C25.0488 30.9583 26.7845 30.9536 28.5538 30.9536C28.722 31.1826 28.8745 31.4443 29.0786 31.6522C29.2714 31.8508 29.3656 32.1663 29.6729 32.2363H34.7073C34.9069 32.0494 35.1961 31.8765 35.3486 31.6148C35.5258 31.3088 35.7523 31.1078 36.0573 30.9419H61.4402C61.6084 30.7667 61.7676 30.6008 61.9111 30.4513C62.1466 29.276 62.039 28.1008 62.0412 26.9325C62.0524 20.5166 62.0457 14.103 62.0457 7.687C62.0457 7.23606 62.1017 6.77811 61.8775 6.32717C61.6959 6.15193 61.5097 5.92763 61.2855 5.76408C61.0455 5.58884 60.8639 5.38323 60.6935 5.13557C60.4154 4.73369 60.0723 4.45799 59.5161 4.46033C54.0287 4.48135 48.5435 4.47434 43.0561 4.46967C42.7265 4.46967 42.4327 4.55612 42.139 4.70098C41.9461 4.79678 41.8497 4.92762 41.7667 5.13557C41.677 5.35753 41.668 5.57015 41.668 5.79212C41.668 7.63793 41.6546 9.48608 41.6748 11.3319C41.6792 11.7805 41.5335 12.1333 41.1993 12.3459C40.8921 12.5399 40.6903 12.8296 40.4346 13.0422V27.5587L40.4324 27.5634ZM45.3188 62.5545C44.8883 62.6526 44.581 62.4446 44.3232 62.1245C44.2469 62.0287 44.155 61.9166 44.1393 61.7998C44.1101 61.5988 43.9643 61.454 43.8433 61.4166C43.4643 61.3021 43.2602 60.9937 43.0023 60.7507V59.3371C42.8722 59.1596 42.7444 58.9843 42.6413 58.8441C42.3094 58.8138 42.0425 58.8278 41.8362 59.0684C41.6972 59.3753 41.4953 59.6471 41.2307 59.8839C40.7733 59.7647 40.6656 59.6689 40.4302 59.2413C40.3248 59.0497 40.1857 58.8792 40.0758 58.7203H39.6924C39.4838 59.0007 39.1878 59.2016 39.0174 59.5357C38.9411 59.6829 38.7752 59.7951 38.6137 59.8979C38.3088 60.0941 37.9769 60.2881 37.849 60.704C37.793 60.8862 37.6024 61.0241 37.4902 61.1596H36.9812C36.878 61.003 36.748 60.8442 36.6605 60.6642C36.508 60.3512 36.2972 60.1128 35.99 59.9726C35.6626 59.8231 35.4271 59.5591 35.3015 59.2296C35.232 59.0497 35.1266 58.9119 35.001 58.8441C34.7746 58.7226 34.5144 58.6385 34.2588 58.6058C33.9202 58.5614 33.5838 58.6642 33.2945 58.8395C33.1061 58.9516 32.9649 59.1502 32.8236 59.2904C32.8236 59.6759 32.8124 60.0054 32.8258 60.3348C32.837 60.6175 32.7473 60.8465 32.5567 61.0334H31.8257C31.7472 60.9096 31.6642 60.7881 31.5947 60.6596C31.4556 60.4002 31.2942 60.1853 31.0273 60.0311C30.7694 59.8815 30.4846 59.7297 30.3591 59.4049C30.2514 59.1222 30.072 58.8909 29.841 58.7203C29.6011 58.6876 29.3791 58.6899 29.1436 58.6222C28.7602 58.5123 28.3408 58.5661 28.0605 58.9539C27.9641 59.0871 27.8497 59.1969 27.7645 59.3465C27.6165 59.6011 27.3877 59.8769 27.1321 59.975C26.8069 60.0988 26.6813 60.3675 26.493 60.5918C26.3405 60.7741 26.2171 60.982 26.0938 61.1619H25.6027C25.2013 60.8348 25.1542 60.1642 24.5824 59.989C24.2258 59.5965 23.8692 59.2016 23.5486 58.8465H22.9745C22.8982 58.9726 22.8018 59.0871 22.748 59.2226C22.5125 59.7997 22.0349 59.9469 21.5056 59.9937C21.2657 60.0147 21.0213 59.9983 20.8329 59.9983C20.492 60.1642 20.2297 60.3628 20.1175 60.6993C19.9695 61.1432 19.6085 61.2624 19.2362 61.2741C18.3258 61.3021 17.4153 61.2834 16.5295 61.2834C16.4645 61.2156 16.4241 61.1736 16.3658 61.1128V60.6058C16.1954 60.3955 16.0227 60.1853 15.8725 60.0007C15.036 60.0007 14.2534 60.0077 13.4685 59.996C13.1994 59.9913 12.9774 60.0731 12.7935 60.2741C12.7173 60.3582 12.6365 60.4399 12.5558 60.5217V62.0474C12.493 62.1105 12.4235 62.1736 12.3585 62.246C12.1499 62.4797 11.9032 62.5918 11.5893 62.5708C11.3404 62.5545 11.0937 62.6245 10.8492 62.6596C10.4164 62.7203 10.1473 62.9376 10.0016 63.3138C9.91188 63.5451 9.75715 63.7577 9.58896 63.8208C9.10458 63.9984 8.87136 64.3886 8.63141 64.8021C8.45201 65.1129 8.18291 65.2671 7.82411 65.2507C7.51016 65.2367 7.19396 65.2484 6.88001 65.2484C6.46291 65.3886 6.37321 65.8022 6.17138 66.155C6.17138 66.3325 6.1355 66.5545 6.17811 66.7578C6.27005 67.1994 6.32835 67.69 6.83516 67.8559C7.01905 67.9167 7.22536 67.9283 7.4227 67.9283C21.7747 67.9307 36.1245 67.9354 50.4766 67.9237C51.6337 67.9237 52.7998 68.0522 53.939 67.7998C54.3606 67.4564 54.5153 66.8559 55.1365 66.6479C55.3339 66.6479 55.6164 66.6737 55.8922 66.6409C56.3318 66.5919 56.6502 66.8092 56.8588 67.1503C56.9911 67.3653 57.1615 67.5171 57.2848 67.69H57.7625C57.9778 67.4073 58.2872 67.2157 58.4352 66.8676C58.4711 66.7858 58.5519 66.6877 58.6303 66.6666C59.1304 66.5311 59.3547 66.1082 59.5946 65.697C59.7763 65.3863 60.0409 65.2321 60.3997 65.2437C60.7518 65.2554 61.1038 65.2461 61.4581 65.2461C61.7721 65.1339 61.9022 64.8933 61.947 64.5755C62.012 64.1105 62.1062 63.6503 62.0591 63.2367C62.2924 62.982 62.4538 62.7157 62.687 62.5778C63.0032 62.3909 63.223 62.1362 63.3755 61.8185C63.4786 61.6035 63.5997 61.4703 63.8105 61.3699C64.1581 61.204 64.4295 60.9399 64.5326 60.5077C64.2187 60.2273 63.8823 59.9633 63.5885 59.6549C63.297 59.3511 63.0458 59.0053 62.779 58.6806C62.5054 58.7787 62.2498 58.7904 62.1645 59.1105C62.1287 59.2437 62.03 59.3675 61.938 59.4773C61.6712 59.8044 61.3707 60.0497 60.9132 60.003C60.6015 59.9703 60.2831 59.996 59.9736 59.996C59.8054 60.2367 59.5789 60.3932 59.4399 60.6572C59.3121 60.9026 59.0856 61.1269 58.8524 61.2647C58.5362 61.4516 58.3186 61.7086 58.1639 62.0241C58.0697 62.2157 57.9823 62.3699 57.7782 62.4516C57.6347 62.5077 57.5001 62.6105 57.3813 62.7157C57.0808 62.9797 56.8565 63.2811 56.9036 63.7367C56.9328 64.0241 56.9081 64.3185 56.9081 64.6082C56.7803 64.7881 56.6547 64.968 56.6054 65.0358C55.9371 65.3395 55.3742 65.2951 54.9459 65.1433C54.7194 64.933 54.5826 64.8045 54.457 64.6877V63.1689C54.7329 62.975 54.8988 62.6689 55.2083 62.5054C55.3944 62.4073 55.5985 62.2086 55.6568 62.0124C55.751 61.69 55.973 61.5498 56.195 61.3769C56.4417 61.1853 56.6794 60.9843 56.9036 60.8021V59.2343C56.7758 59.1035 56.6412 58.9703 56.5022 58.8301H56.0447C55.7981 59.1409 55.5424 59.4586 55.3025 59.76H54.8248C54.5557 59.6829 54.4144 59.4516 54.3404 59.218C54.2462 58.9212 54.0085 58.7834 53.7977 58.7366C53.5757 58.6899 53.347 58.6152 53.1205 58.6058C52.8761 58.5965 52.6272 58.6642 52.3558 58.7016C52.1921 58.9095 52.0194 59.1245 51.8647 59.3184V60.5801C51.7346 60.9096 51.544 61.1058 51.2817 61.2577C51.0484 61.3932 50.7816 61.5638 50.6672 61.7928C50.4631 62.2063 50.2187 62.489 49.8038 62.6993C49.4764 62.8652 49.2432 63.2227 49.2836 63.6853C49.3105 63.9914 49.2881 64.3045 49.2881 64.6129C49.1759 64.9423 48.9158 65.1012 48.6422 65.2437C48.3619 65.2437 48.0793 65.2204 47.8035 65.2484C47.3595 65.2951 47.0478 65.0498 46.8482 64.7157C46.6868 64.447 46.476 64.2484 46.2719 64.0381C46.0566 63.8161 45.7987 63.6409 45.6014 63.4797V62.7881C45.7696 62.7133 45.9422 62.6339 46.1194 62.5615C46.3526 62.468 46.6195 62.3769 46.7024 62.1175C46.8594 61.6292 47.2362 61.4002 47.6152 61.1619C47.9179 60.9703 48.0659 60.7016 48.0569 60.3301C48.048 60.0007 48.0569 59.6712 48.0569 59.3465C47.9246 59.1619 47.799 58.9843 47.6914 58.8348H47.0568C46.9469 59.0077 46.8168 59.1853 46.7159 59.3792C46.5724 59.6502 46.3885 59.8652 46.1127 59.9937C45.8279 60.1269 45.5991 60.3208 45.4623 60.7857V62.4049C45.404 62.4657 45.3637 62.5077 45.3256 62.5474L45.3188 62.5545ZM36.9991 17.6567C37.3893 17.6848 37.6853 17.5563 37.8154 17.1684C37.8625 17.0306 37.8558 16.8693 37.8558 16.7198C37.8558 13.7478 37.8558 10.7735 37.8558 7.85756C37.6741 7.39961 37.4028 7.15428 36.9453 7.15662C33.234 7.16129 29.5226 7.15896 25.8225 7.15896C25.3919 7.41363 25.1968 7.79214 25.2013 8.29215C25.2058 8.87393 25.2013 9.45805 25.2013 10.0398V16.881C25.3515 17.4394 25.6677 17.6544 26.0355 17.7525C26.2799 17.818 26.5535 17.7689 26.8114 17.7736C27.2734 17.7829 27.7779 17.2782 27.7757 16.7712C27.7757 16.4231 27.7757 16.0726 27.7757 15.7245C27.8699 15.3763 28.1502 15.2432 28.4327 15.0819H29.5675C29.9689 14.9254 30.1886 14.6637 30.3658 14.2478V11.6333C30.5048 11.4884 30.6214 11.3669 30.7515 11.2314C31.718 11.0609 32.6913 11.0609 33.5838 11.2174C33.7834 11.3997 33.9224 11.5258 34.0547 11.6473V14.4114C34.2341 14.61 34.4135 14.8904 34.6624 15.0633C34.9697 15.2782 35.2186 15.5119 35.4092 15.846C35.5191 16.0399 35.6917 16.2245 35.8801 16.3366C36.2703 16.5703 36.5461 16.888 36.7412 17.3039C36.804 17.4371 36.9162 17.5423 36.9991 17.6497V17.6567ZM29.5854 19.0586C29.3028 19.0586 28.9687 19.054 28.6346 19.061C28.5314 19.0633 28.426 19.0983 28.3273 19.1311C27.8968 19.2736 27.7981 19.6521 27.7847 20.0493C27.7645 20.6708 27.7891 21.2923 27.7757 21.9161C27.769 22.2152 27.6994 22.5049 27.4617 22.7105C27.298 22.8531 27.1366 23.0119 26.9504 23.1147C26.8204 23.1872 26.7352 23.2456 26.6477 23.3881C26.3809 23.8204 26.1275 24.2806 25.5915 24.4395C25.4816 24.4722 25.4009 24.6194 25.3157 24.7035V25.1615C25.4547 25.3157 25.5825 25.4559 25.6745 25.5587C26.188 25.6124 26.6567 25.6966 27.1254 25.7012C28.6189 25.7199 30.1101 25.7082 31.6036 25.7082H37.1247C37.2727 25.5984 37.4073 25.512 37.5284 25.4045C37.6539 25.2947 37.7616 25.1662 37.858 25.0657C37.858 24.2269 37.8513 23.4278 37.8602 22.6311C37.8647 22.1988 37.7257 21.8834 37.3243 21.7012C37.0238 21.5657 36.8063 21.3203 36.6179 21.0306C36.4542 20.7806 36.2546 20.5213 36.0124 20.3694C35.8173 20.2479 35.6446 20.1054 35.5236 19.9325C35.2208 19.5026 34.8912 19.117 34.4584 18.825C34.3328 18.7385 34.2722 18.5563 34.1623 18.4348C33.9202 18.1684 33.6982 17.8694 33.4111 17.6708C33.1757 17.5072 33.0075 17.3226 32.8752 17.075C32.781 16.9021 32.6599 16.7432 32.5769 16.617H31.9468C31.81 16.86 31.5498 16.9885 31.4355 17.2736C31.3727 17.4301 31.1731 17.5282 31.0385 17.6567C30.7807 17.9021 30.4689 18.11 30.2828 18.4044C30.1079 18.6848 29.9083 18.8904 29.5876 19.0563L29.5854 19.0586ZM67.0285 60.739C67.2752 60.9493 67.4815 61.1269 67.6699 61.2857H68.919C69.1903 61.0848 69.5469 60.968 69.5626 60.5311C69.4774 60.4446 69.3944 60.3675 69.3181 60.2857C69.1342 60.0895 68.9235 59.989 68.6521 60.0007C68.2059 60.0194 67.7506 59.9516 67.2842 60.1853C67.2191 60.3278 67.1384 60.5054 67.0308 60.7413L67.0285 60.739ZM51.9813 49.0122C52.2302 49.2038 52.4522 49.3347 52.6832 49.1758C52.811 49.0426 52.9389 48.9118 53.1071 48.7365C53.0375 48.5963 52.9456 48.4071 52.8626 48.2389C52.5083 48.1828 52.219 48.2225 51.9813 48.5006V49.0099V49.0122Z" fill="#0808FF"/>
<path d="M17.5879 50.0705C17.5879 46.6967 17.5879 43.3905 17.5901 40.0868C17.5901 39.9209 17.626 39.7526 17.6462 39.5868C17.691 39.2386 17.8929 39.0283 18.2965 38.8905C18.5275 38.8905 18.8616 38.8975 19.198 38.8905C19.6645 38.8788 19.9717 39.0914 20.169 39.533C20.3664 39.9723 20.7319 40.1615 21.1871 40.1755C21.2611 40.1755 21.3374 40.1662 21.4114 40.1755C21.6872 40.2153 21.9563 40.1475 22.2007 40.0447C22.3622 39.9793 22.4788 39.8017 22.6268 39.6639C22.6268 39.3391 22.647 39.0096 22.6223 38.6825C22.5932 38.29 22.721 37.9839 23.0215 37.7316H23.5709C23.7951 37.9068 23.9723 38.1358 24.0867 38.4185C24.1584 38.5938 24.2795 38.7012 24.4634 38.7853C24.8312 38.9536 25.1048 39.2526 25.2954 39.6265C25.3694 39.7713 25.4613 39.9092 25.5443 40.0447H26.0735C26.1744 39.9115 26.3157 39.7456 26.4323 39.5587C26.596 39.297 26.697 38.9793 27.0423 38.8905C27.3585 38.8905 27.6747 38.8741 27.9909 38.8952C28.2353 38.9115 28.4506 38.811 28.6502 38.7176C28.7915 38.6522 28.9013 38.4512 28.9664 38.283C29.083 37.9816 29.3431 37.8297 29.4889 37.6358C30.2558 37.3718 30.9958 37.5236 31.7269 37.4979C31.931 37.4909 32.1552 37.547 32.3346 37.6451C32.4714 37.7199 32.6418 37.755 32.7248 37.9816C32.8481 38.3204 33.0859 38.5984 33.429 38.7877C33.6667 38.9185 33.8438 39.1755 34.0277 39.3952C34.169 39.5634 34.2766 39.7573 34.3932 39.9302H35.0301C35.1355 39.7854 35.2611 39.6078 35.3912 39.4302V38.0377C35.5324 37.9022 35.6692 37.7713 35.8307 37.6171C36.9699 37.3764 38.1719 37.5283 39.3694 37.4909C39.8493 37.4769 40.2462 37.6381 40.4368 38.1428C40.5646 38.4793 40.8539 38.6592 41.0894 38.8905C41.2845 39.0821 41.5132 39.2503 41.6612 39.4746C41.8541 39.7643 42.0895 39.9583 42.3721 40.0657C42.8632 39.9466 43.0426 39.6452 43.0179 39.1662C42.9977 38.797 43.0134 38.4279 43.0134 38.019C43.1951 37.8274 43.3767 37.6008 43.6593 37.4886C43.888 37.3975 44.0315 37.2222 44.1392 36.9909C44.2311 36.7923 44.3701 36.6194 44.48 36.4465H45.2313C45.3232 36.5844 45.4667 36.7363 45.534 36.9208C45.6955 37.3601 46.0453 37.4465 46.4243 37.4886C46.5902 37.5073 46.7607 37.4909 46.9288 37.4909C47.4469 37.4909 47.8258 37.7433 48.0479 38.2152C48.1959 38.5307 48.3954 38.7503 48.7027 38.8975C48.9695 39.0237 49.1691 39.2339 49.288 39.526C49.418 39.8438 49.6356 40.0774 49.9674 40.1755C50.1962 40.0727 50.3756 39.9442 50.5012 39.6872C50.6492 39.3905 50.8936 39.1498 51.0909 38.8928H57.5C58.6572 38.8928 59.8143 38.8858 60.9714 38.8952C61.4379 38.8998 61.7428 38.6942 61.9469 38.2573C62.0546 38.026 62.2407 37.8344 62.3416 37.6919C62.8439 37.4349 63.3036 37.4956 63.7544 37.4933C64.1648 37.4909 64.5751 37.4839 64.9855 37.4933C65.5125 37.5096 66.0373 37.54 66.497 37.5634C66.719 37.797 66.8894 37.9746 67.089 38.1849C67.089 41.9957 67.089 45.8625 67.0912 49.7294C67.0912 50.1803 66.8849 50.4794 66.5059 50.6266C66.2794 50.713 66.0507 50.8112 65.7861 50.7995C65.2098 50.7738 64.629 50.7902 64.0504 50.7902C63.7095 50.6102 63.4449 50.3649 63.2386 50.0121C63.1175 49.8042 62.8955 49.6406 62.6802 49.4864C62.3909 49.2808 62.0904 49.0261 61.938 48.5168C61.9671 48.22 61.9649 47.7808 62.0658 47.3696C62.1196 47.1523 62.2586 46.928 62.5367 46.8111C63.0637 46.5892 63.2924 46.1219 63.2812 45.5261C63.2722 45.0588 63.261 44.5915 63.2857 44.1265C63.3014 43.8532 63.2207 43.6055 63.1354 43.3695C63.0547 43.1405 62.9179 42.9232 62.6443 42.8251C62.3349 42.713 62.1263 42.4536 61.9693 42.1452C61.8617 41.9326 61.7025 41.7503 61.5859 41.5774H61.1777C60.9961 41.8158 60.7449 42.0377 60.6238 42.3204C60.4355 42.7644 60.0812 42.8345 59.7156 42.8508C59.0272 42.8812 58.3342 42.8602 57.6435 42.8602C55.6275 42.8602 53.6115 42.8555 51.5977 42.8625C51.1313 42.8625 50.8241 42.6616 50.6178 42.2293C50.5079 41.998 50.3262 41.8041 50.1782 41.5938H49.7925C49.5167 41.755 49.3552 42.0798 49.1781 42.3742C49.0682 42.5588 48.9493 42.6802 48.7587 42.769C48.2452 43.0074 48.0434 43.4443 48.0456 44.0237C48.0546 46.0658 48.0501 48.1055 48.0501 50.1266C47.8729 50.3182 47.707 50.4981 47.5949 50.6219C47.0948 50.8556 46.6351 50.7855 46.1821 50.7902C45.5856 50.7948 44.9868 50.7738 44.3903 50.7972C43.9643 50.8135 43.5853 50.6967 43.2691 50.5145C43.0493 50.185 42.8565 49.8976 42.6815 49.6383C42.4147 49.6102 42.1972 49.5869 42.0088 49.7411C41.9281 49.8065 41.8406 49.8719 41.7845 49.9584C41.7083 50.0752 41.6724 50.2247 41.5917 50.3392C41.5042 50.463 41.3854 50.5612 41.3159 50.6336C40.4256 50.9 39.5577 50.7668 38.6944 50.7855C37.8175 50.8042 36.9407 50.7902 36.0639 50.7902C30.4285 50.7902 24.7908 50.7902 19.1554 50.7902C18.8123 50.7902 18.4647 50.8345 18.1059 50.7037C17.9332 50.4934 17.7628 50.2808 17.5924 50.0729L17.5879 50.0705ZM36.6268 43.6172C36.5886 43.5728 36.5281 43.5354 36.5191 43.4863C36.4362 43.1102 36.2029 42.8742 35.8733 42.7433C35.6894 42.6709 35.6087 42.526 35.4988 42.3742C35.3284 42.1405 35.2521 41.8204 34.9673 41.6896C34.6422 41.5424 34.299 41.3555 33.9447 41.4676C33.5859 41.5798 33.1464 41.5681 32.9311 42.0214C32.8975 42.1943 32.8257 42.3905 32.8235 42.5868C32.8145 44.1779 32.819 45.7691 32.819 47.3322C33.0186 47.6616 33.2204 47.9233 33.5299 48.1172C33.7676 48.2644 33.9918 48.4864 34.095 48.7901C34.1914 49.0752 34.3932 49.2271 34.6646 49.2761C35.2947 48.9864 35.3934 48.8392 35.3934 48.192C35.3934 48.0354 35.4001 47.8812 35.3934 47.7247C35.3799 47.4537 35.4091 47.2013 35.6289 46.984C35.6244 46.9887 35.6356 46.97 35.6513 46.963C35.6827 46.9513 35.7208 46.9513 35.7522 46.935C36.3375 46.6406 36.6582 46.185 36.6313 45.477C36.6088 44.8765 36.6268 44.2714 36.6268 43.6148V43.6172ZM42.1635 41.6896C41.9168 41.977 41.6343 42.1943 41.4683 42.526C41.4168 42.6288 41.3024 42.6966 41.1723 42.7503C40.6476 42.9653 40.457 43.4513 40.4435 43.984C40.4166 45.1078 40.4345 46.234 40.4345 47.3392C40.6947 47.7854 40.7463 47.8368 41.2486 48.1312C41.6388 48.0985 42.0716 48.0611 42.5223 48.0238C42.7062 47.7738 42.8587 47.5121 43.0628 47.3041C43.2668 47.0939 43.4373 46.8485 43.7109 46.6943C44.0854 46.4864 44.2378 46.1008 44.2401 45.6616C44.2423 45.0588 44.2491 44.456 44.2356 43.8532C44.2311 43.6546 44.2154 43.4209 44.1123 43.2714C43.9957 43.0985 43.8566 42.9209 43.6212 42.8391C43.3319 42.7387 43.1368 42.498 43 42.1943C42.9125 41.998 42.7488 41.8391 42.6389 41.6919H42.1635V41.6896ZM25.2147 47.2878C25.3627 47.7247 25.6385 47.9467 25.9435 48.0915H27.1769C27.3226 47.9397 27.4684 47.8158 27.5805 47.6616C27.6837 47.5191 27.7823 47.3672 27.7801 47.1663C27.7756 46.0798 27.8048 44.9934 27.7644 43.9092C27.7464 43.4303 27.5715 42.9606 27.0737 42.7737C26.8472 42.6896 26.6723 42.5284 26.5848 42.3461C26.4436 42.0587 26.2081 41.8858 26.013 41.6662C25.9502 41.5938 25.8269 41.5821 25.7058 41.5307C25.4636 41.8391 25.2505 42.1452 24.9994 42.4139C24.7482 42.6802 24.4589 42.9092 24.201 43.1382V43.8555C24.5083 44.0821 24.811 44.3041 25.0756 44.5004C25.3201 45.4677 25.1384 46.3929 25.2147 47.2854V47.2878ZM19.0478 45.8041C18.9939 46.2924 19.2496 46.5985 19.5748 46.8088C19.7833 46.9443 19.9448 47.1172 20.104 47.2925C20.3013 47.5097 20.4583 47.7644 20.6444 48.0168C21.0705 48.0565 21.4831 48.0962 21.8576 48.1312C22.1491 47.9397 22.4003 47.7714 22.5909 47.6476C22.638 47.3462 22.6694 47.1289 22.7008 46.9373C22.6761 46.741 22.6358 46.5611 22.6335 46.3836C22.6268 45.4163 22.6313 44.4466 22.6313 43.5074C22.4758 43.2394 22.259 43.0222 21.981 42.8555C21.6827 42.8555 21.3845 42.8531 21.0862 42.8555C20.5345 42.8602 20.1982 43.1943 20.169 43.7784C20.1488 44.1919 20.2161 44.6125 19.9829 45.1149C19.7295 45.3018 19.3819 45.5588 19.0522 45.8041H19.0478Z" fill="white"/>
<path d="M40.4325 27.5632V13.0467C40.6882 12.8341 40.8877 12.5467 41.1972 12.3504C41.5336 12.1378 41.6793 11.785 41.6726 11.3364C41.6524 9.4906 41.6636 7.64245 41.6659 5.79663C41.6659 5.57467 41.6749 5.36205 41.7646 5.14009C41.8475 4.93214 41.944 4.8013 42.1368 4.7055C42.4306 4.56064 42.7244 4.47419 43.054 4.47419C48.5414 4.47886 54.0288 4.48587 59.514 4.46484C60.0701 4.46484 60.4132 4.73821 60.6913 5.14009C60.864 5.38775 61.0434 5.59336 61.2833 5.7686C61.5076 5.93215 61.6937 6.15412 61.8754 6.33169C62.0996 6.78496 62.0436 7.24291 62.0436 7.69152C62.0436 14.1075 62.0503 20.5211 62.0391 26.9371C62.0391 28.1053 62.1445 29.2805 61.909 30.4558C61.7655 30.6053 61.6063 30.7712 61.4381 30.9465H36.0551C35.7479 31.1123 35.5237 31.3133 35.3465 31.6194C35.194 31.881 34.9047 32.0539 34.7051 32.2409H29.6707C29.3635 32.1708 29.2693 31.8553 29.0765 31.6567C28.8724 31.4488 28.7199 31.1871 28.5517 30.9581C26.7824 30.9581 25.0489 30.9605 23.3132 30.9581C22.8423 30.9581 22.3624 31.0282 21.8511 30.7946C21.8107 30.7479 21.7255 30.6474 21.6201 30.5259V29.9768C21.8018 29.7502 22.017 29.5633 22.2884 29.4348C22.4229 29.3717 22.5508 29.2291 22.6158 29.0913C22.7459 28.8156 22.9118 28.5819 23.071 28.4534C23.5644 28.2198 24.0061 28.2782 24.4412 28.2782C29.4061 28.2782 34.3688 28.2712 39.3337 28.2852C39.8382 28.2852 40.2127 28.152 40.4303 27.5679L40.4325 27.5632ZM44.8906 25.5913H48.7903C49.1559 25.159 49.5304 24.7174 49.8757 24.3085C50.3646 24.3085 50.7929 24.3039 51.2235 24.3085C51.7303 24.3179 52.2438 24.2314 52.7349 24.4674C52.9322 24.6497 53.1049 24.8553 53.2058 25.1286C53.2686 25.2992 53.4234 25.3903 53.5826 25.4955C53.8046 25.6403 54.0131 25.5842 54.2194 25.5842C54.7913 25.5796 55.2779 25.7501 55.6546 26.2314C55.621 26.4908 55.7914 26.6286 55.9529 26.7478H56.4776C56.6413 26.6263 56.7692 26.5329 56.8925 26.4417C56.897 26.3623 56.8992 26.2875 56.8992 26.3156C57.0719 26.1053 57.1908 25.9604 57.3029 25.8249C57.5765 25.8296 57.8388 25.9106 58.09 26.0679C58.1887 26.3973 58.3771 26.6801 58.6731 26.881C59.0834 26.8506 59.3032 26.5749 59.4714 26.1894C59.4714 20.7688 59.4714 15.3084 59.4714 9.84575C59.4714 9.33873 59.3346 8.89947 58.9556 8.59106C58.5183 8.34339 58.0541 8.44853 57.6011 8.44853C53.6454 8.44152 49.6896 8.44386 45.7338 8.44386C45.6217 8.44386 45.5073 8.42984 45.3974 8.4462C44.931 8.52096 44.5161 8.68218 44.2336 9.12611C44.0721 9.37611 43.8837 9.64014 43.646 9.79434C43.4375 9.92986 43.2962 10.1121 43.1258 10.2429V10.6191C43.5092 10.9883 43.8882 11.3551 44.2403 11.6916V18.8155C44.2403 20.7594 44.2425 22.7034 44.238 24.645C44.238 25.0165 44.3748 25.2898 44.6798 25.4768C44.7404 25.5141 44.8032 25.5445 44.8906 25.5936V25.5913Z" fill="white"/>
<path d="M45.3187 62.5543C45.3546 62.5169 45.3949 62.4748 45.4555 62.4117V60.7925C45.5923 60.3276 45.8233 60.1337 46.1058 60.0005C46.3794 59.872 46.5655 59.657 46.709 59.386C46.81 59.1921 46.94 59.0145 47.0499 58.8416H47.6845C47.7922 58.9911 47.9178 59.1687 48.0501 59.3533C48.0501 59.6781 48.0433 60.0075 48.0501 60.3369C48.0613 60.7084 47.911 60.9771 47.6083 61.1687C47.2293 61.4094 46.8526 61.6384 46.6956 62.1243C46.6126 62.3837 46.348 62.4725 46.1125 62.5683C45.9354 62.6407 45.7627 62.7201 45.5945 62.7949V63.4865C45.7919 63.6477 46.0497 63.823 46.265 64.0449C46.4691 64.2552 46.6799 64.4538 46.8414 64.7225C47.0409 65.0566 47.3526 65.3019 47.7967 65.2552C48.0747 65.2248 48.355 65.2505 48.6354 65.2505C48.9089 65.108 49.1668 64.9491 49.2812 64.6197C49.2812 64.3113 49.3036 63.9982 49.2767 63.6921C49.2364 63.2295 49.4696 62.8743 49.797 62.7061C50.2118 62.4958 50.4563 62.2131 50.6603 61.7996C50.7747 61.5706 51.0416 61.3977 51.2748 61.2645C51.5372 61.1126 51.7278 60.9164 51.8578 60.5869V59.3252C52.0126 59.1313 52.183 58.9164 52.3489 58.7084C52.6225 58.671 52.8692 58.6033 53.1136 58.6126C53.3401 58.6196 53.5689 58.6967 53.7909 58.7435C54.0017 58.7879 54.2394 58.9257 54.3336 59.2248C54.4076 59.4584 54.5489 59.6897 54.818 59.7668H55.2956C55.5356 59.4678 55.789 59.1477 56.0379 58.8369H56.4953C56.6344 58.9771 56.7667 59.1126 56.8968 59.2411V60.8089C56.6747 60.9911 56.4348 61.1921 56.1881 61.3837C55.9661 61.5566 55.7419 61.6968 55.6499 62.0192C55.5916 62.2155 55.3875 62.4164 55.2014 62.5122C54.8897 62.6757 54.7238 62.9818 54.4502 63.1758V64.6945C54.5758 64.8136 54.7126 64.9398 54.939 65.1501C55.3674 65.3019 55.9302 65.3463 56.5985 65.0426C56.6456 64.9748 56.7734 64.7949 56.9012 64.615C56.9012 64.3253 56.9259 64.0309 56.8968 63.7435C56.8497 63.2879 57.0739 62.9888 57.3744 62.7225C57.4933 62.6173 57.6278 62.5145 57.7713 62.4585C57.9776 62.3767 58.0629 62.2225 58.157 62.0309C58.314 61.7178 58.5315 61.4584 58.8455 61.2715C59.081 61.1337 59.3052 60.907 59.433 60.664C59.5721 60.4 59.7986 60.2435 59.9667 60.0028C60.2762 60.0028 60.5947 59.9771 60.9064 60.0098C61.3638 60.0566 61.6643 59.8112 61.9312 59.4841C62.0209 59.3743 62.1218 59.2505 62.1577 59.1173C62.2429 58.7972 62.4963 58.7855 62.7721 58.6874C63.039 59.0122 63.2901 59.358 63.5817 59.6617C63.8777 59.9678 64.2118 60.2341 64.5258 60.5145C64.4226 60.9491 64.1513 61.2108 63.8037 61.3767C63.5929 61.4771 63.4718 61.6103 63.3686 61.8253C63.2184 62.1407 62.9964 62.3954 62.6802 62.5846C62.447 62.7225 62.2855 62.9912 62.0523 63.2435C62.0994 63.6571 62.0052 64.1174 61.9402 64.5823C61.8953 64.9001 61.7652 65.1407 61.4513 65.2529C61.0992 65.2529 60.7471 65.2622 60.3928 65.2505C60.034 65.2389 59.7694 65.3907 59.5878 65.7038C59.3478 66.115 59.1236 66.5379 58.6235 66.6735C58.545 66.6945 58.4643 66.7926 58.4284 66.8744C58.2826 67.2225 57.9709 67.4141 57.7556 67.6968H57.278C57.1546 67.5216 56.982 67.3697 56.8519 67.1571C56.6434 66.8183 56.3249 66.5987 55.8854 66.6478C55.6096 66.6805 55.327 66.6548 55.1297 66.6548C54.5085 66.8627 54.3538 67.4655 53.9322 67.8067C52.793 68.059 51.6291 67.9305 50.4697 67.9305C36.1177 67.9398 21.7679 67.9375 7.41584 67.9352C7.21849 67.9352 7.01443 67.9258 6.8283 67.8627C6.32149 67.6945 6.26319 67.2038 6.17124 66.7646C6.12864 66.5613 6.16452 66.3393 6.16452 66.1618C6.36634 65.809 6.45604 65.3954 6.87315 65.2552C7.1871 65.2552 7.50329 65.2435 7.81724 65.2576C8.17829 65.2739 8.44515 65.1174 8.62455 64.8089C8.86449 64.3954 9.09772 64.0052 9.5821 63.8276C9.75029 63.7645 9.90502 63.5543 9.99472 63.3206C10.1405 62.9421 10.4096 62.7248 10.8424 62.6664C11.0868 62.6314 11.3335 62.5613 11.5824 62.5776C11.8964 62.5986 12.143 62.4865 12.3516 62.2528C12.4144 62.1827 12.4861 62.1173 12.5489 62.0542V60.5285C12.6297 60.4444 12.7104 60.365 12.7866 60.2809C12.9705 60.0799 13.1925 59.9981 13.4616 60.0028C14.2443 60.0122 15.0291 60.0075 15.8656 60.0075C16.0159 60.1921 16.1885 60.4024 16.359 60.6126V61.1197C16.4173 61.1804 16.4576 61.2225 16.5227 61.2902C17.4062 61.2902 18.3189 61.3089 19.2294 61.2809C19.6016 61.2692 19.9604 61.15 20.1107 60.7061C20.2228 60.3696 20.4852 60.1734 20.826 60.0052C21.0166 60.0052 21.2588 60.0239 21.4988 60.0005C22.028 59.9538 22.5057 59.8066 22.7411 59.2294C22.7949 59.0963 22.8914 58.9794 22.9676 58.8533H23.5417C23.8624 59.2084 24.2189 59.6009 24.5755 59.9958C25.1473 60.171 25.1922 60.8416 25.5958 61.1687H26.0869C26.2103 60.9888 26.3336 60.7809 26.4861 60.5986C26.6767 60.3743 26.8001 60.1056 27.1252 59.9818C27.3809 59.886 27.6096 59.608 27.7576 59.3533C27.8451 59.2037 27.9594 59.0939 28.0536 58.9608C28.3339 58.5729 28.7533 58.5192 29.1368 58.629C29.3722 58.6967 29.5965 58.6944 29.8342 58.7271C30.0652 58.8977 30.2423 59.129 30.3522 59.4117C30.4755 59.7365 30.7626 59.8883 31.0205 60.0379C31.2873 60.1921 31.4465 60.407 31.5878 60.6664C31.6573 60.7949 31.7426 60.914 31.8188 61.0402H32.5499C32.7427 60.851 32.8302 60.6243 32.819 60.3416C32.8055 60.0122 32.8167 59.6827 32.8167 59.2972C32.958 59.1594 33.0993 58.9608 33.2876 58.8463C33.5792 58.671 33.9155 58.5706 34.2519 58.6126C34.5053 58.6453 34.7677 58.7271 34.9942 58.8509C35.1175 58.9187 35.2252 59.0589 35.2947 59.2365C35.4203 59.5636 35.6557 59.8299 35.9831 59.9795C36.2926 60.1196 36.5012 60.358 36.6536 60.6711C36.7411 60.851 36.8712 61.0098 36.9743 61.1664H37.4834C37.5955 61.0285 37.7861 60.893 37.8422 60.7108C37.97 60.2949 38.3019 60.101 38.6069 59.9047C38.7683 59.7995 38.9343 59.6897 39.0105 59.5425C39.181 59.2108 39.477 59.0098 39.6855 58.7271H40.069C40.1766 58.8837 40.3179 59.0565 40.4233 59.2481C40.6588 59.6757 40.7664 59.7715 41.2239 59.8907C41.4885 59.6539 41.6903 59.3821 41.8293 59.0752C42.0334 58.8346 42.3025 58.8206 42.6344 58.8509C42.7376 58.9911 42.8654 59.1664 42.9955 59.3439V60.7575C43.2533 61.0005 43.4597 61.3089 43.8364 61.4234C43.9575 61.4608 44.1033 61.6056 44.1324 61.8066C44.1503 61.9211 44.24 62.0332 44.3163 62.1314C44.5742 62.4514 44.8836 62.6594 45.312 62.5613L45.3187 62.5543ZM16.1975 61.2949C15.601 61.2855 15.3633 61.4211 15.0875 61.9701C14.9327 62.2785 14.7242 62.5285 14.4169 62.6547C14.0738 62.7949 13.9438 63.0659 13.8743 63.4491C14.1815 63.7248 14.5156 63.9865 14.8071 64.2903C15.1009 64.5963 15.3521 64.9421 15.5987 65.2435H17.1259C17.2806 65.0309 17.4421 64.8089 17.5744 64.6267V63.1711C17.3546 62.9701 17.155 62.7342 16.9084 62.5776C16.6796 62.4328 16.4531 62.3159 16.3522 61.9538V61.4584C16.2984 61.4024 16.2468 61.3486 16.193 61.2926L16.1975 61.2949ZM37.9678 63.4912C38.183 63.6641 38.4028 63.865 38.645 64.0216C38.8446 64.1501 39.015 64.2622 39.1204 64.5075C39.2191 64.7389 39.4164 64.9258 39.5622 65.1197H40.0735C40.2865 64.8136 40.4614 64.4795 40.7103 64.2225C40.957 63.9655 41.2777 63.7856 41.5513 63.5846V63.0916C41.3921 62.9258 41.2575 62.7178 41.0691 62.6057C40.7103 62.393 40.4592 62.1173 40.3112 61.7131C40.2641 61.5846 40.1228 61.4912 40.0533 61.4164H39.5779C39.4859 61.5122 39.3805 61.5799 39.3334 61.6781C39.1114 62.1267 38.8558 62.5099 38.3624 62.7085C38.1292 62.8019 37.9655 63.0823 37.9655 63.4912H37.9678ZM31.4735 63.0987C31.2357 62.7996 30.9532 62.6641 30.572 62.6781C29.8095 62.7038 29.0448 62.6851 28.2846 62.6851C28.2442 62.7271 28.2061 62.7715 28.1635 62.8089C27.8899 63.0589 27.7397 63.3533 27.7756 63.7505C27.8002 64.0379 27.78 64.33 27.78 64.5449C27.9953 65.115 28.3631 65.2996 28.8677 65.2552C29.1233 65.2319 29.3834 65.2505 29.675 65.2505C29.8544 65.087 30.0943 64.9468 30.2176 64.7342C30.4509 64.3346 30.7469 64.0449 31.1483 63.8463C31.2739 63.7832 31.3725 63.6617 31.4735 63.5753V63.0987ZM22.028 65.2622C22.2276 65.094 22.4361 64.9188 22.6155 64.7669C22.6649 64.3931 22.5505 64.0449 22.7322 63.7225C22.7613 63.6711 22.6783 63.5589 22.6582 63.4725C22.638 63.3837 22.629 63.2902 22.629 63.2949C22.3487 62.6711 21.8038 62.7318 21.3642 62.5683C20.9045 62.7131 20.3596 62.7108 20.1667 63.4258C20.1847 63.8276 20.0905 64.344 20.3259 64.9024C20.752 65.4234 21.4068 65.2015 22.028 65.2622ZM34.1689 64.615C34.3596 64.816 34.5008 64.9632 34.678 65.1501C34.8888 65.0963 35.1041 64.9491 35.2476 64.7669C35.3037 64.5099 35.3687 64.2996 35.3889 64.0846C35.4113 63.837 35.3934 63.5846 35.3934 63.337C35.2229 63.1571 35.0547 62.9795 34.8888 62.8066H34.4403C34.1376 63.0636 34.0322 63.4117 34.0546 63.7949C34.0725 64.108 34.1375 64.4164 34.1667 64.6174L34.1689 64.615Z" fill="white"/>
<path d="M36.9991 17.6569C36.9161 17.5495 36.804 17.442 36.7412 17.3111C36.5461 16.8952 36.2703 16.5775 35.8801 16.3438C35.6917 16.2317 35.519 16.0471 35.4091 15.8532C35.2208 15.5191 34.9696 15.2854 34.6624 15.0705C34.4135 14.8976 34.2341 14.6172 34.0547 14.4186V11.6545C33.9224 11.533 33.7833 11.4069 33.5837 11.2246C32.6912 11.0681 31.718 11.0681 30.7515 11.2386C30.6236 11.3718 30.5048 11.4956 30.3657 11.6405V14.255C30.1886 14.6709 29.9688 14.9303 29.5674 15.0891H28.4327C28.1524 15.2504 27.8698 15.3859 27.7756 15.7317C27.7756 16.0798 27.7756 16.4303 27.7756 16.7784C27.7756 17.2854 27.2711 17.7901 26.8114 17.7808C26.5512 17.7761 26.2799 17.8252 26.0355 17.7597C25.6677 17.6616 25.3515 17.4466 25.2012 16.8882V10.047C25.2012 9.46291 25.2035 8.88113 25.2012 8.29935C25.1968 7.79934 25.3919 7.42083 25.8224 7.16615C29.5226 7.16615 33.2339 7.16849 36.9453 7.16382C37.4027 7.16382 37.6741 7.40681 37.8557 7.86476C37.8557 10.7807 37.8557 13.755 37.8557 16.727C37.8557 16.8765 37.8624 17.0378 37.8154 17.1756C37.6853 17.5635 37.3893 17.6896 36.9991 17.6639V17.6569Z" fill="white"/>
<path d="M29.5855 19.0587C29.9039 18.8904 30.1057 18.6848 30.2806 18.4068C30.4645 18.1124 30.7785 17.9044 31.0364 17.6591C31.1709 17.5306 31.3682 17.4348 31.4333 17.2759C31.5476 16.9909 31.8078 16.8624 31.9446 16.6194H32.5747C32.6599 16.7479 32.781 16.9044 32.873 17.0773C33.0053 17.325 33.1735 17.5096 33.4089 17.6731C33.696 17.8717 33.9202 18.1708 34.1602 18.4372C34.2701 18.5587 34.3306 18.7432 34.4562 18.8274C34.889 19.1194 35.2186 19.5049 35.5214 19.9348C35.6425 20.1077 35.8151 20.2479 36.0102 20.3718C36.2524 20.5236 36.4543 20.7806 36.6157 21.033C36.8041 21.3227 37.0216 21.5657 37.3221 21.7036C37.7258 21.8858 37.8648 22.2012 37.8581 22.6335C37.8491 23.4302 37.8558 24.2269 37.8558 25.0681C37.7616 25.1662 37.6518 25.2971 37.5262 25.4069C37.4051 25.5143 37.2683 25.6008 37.1225 25.7106H31.6015C30.108 25.7106 28.6167 25.7223 27.1232 25.7036C26.6545 25.6989 26.1858 25.6148 25.6723 25.5611C25.5803 25.4583 25.4525 25.3181 25.3135 25.1639V24.7059C25.3987 24.6195 25.4794 24.4723 25.5893 24.4419C26.1253 24.283 26.3787 23.8227 26.6455 23.3905C26.733 23.2503 26.8182 23.1896 26.9483 23.1171C27.1344 23.0143 27.2959 22.8554 27.4596 22.7129C27.695 22.5073 27.7668 22.2176 27.7735 21.9185C27.787 21.297 27.7623 20.6732 27.7825 20.0517C27.7959 19.6521 27.8946 19.276 28.3252 19.1334C28.4238 19.1007 28.5292 19.0657 28.6324 19.0633C28.9665 19.054 29.3007 19.061 29.5832 19.061L29.5855 19.0587Z" fill="white"/>
<path d="M67.0286 60.7391C67.1362 60.5032 67.217 60.3256 67.282 60.1831C67.7485 59.9494 68.2037 60.0172 68.6499 59.9985C68.9213 59.9868 69.1321 60.0873 69.316 60.2835C69.3945 60.3653 69.4752 60.4447 69.5604 60.5289C69.5447 60.9658 69.1881 61.0849 68.9168 61.2835H67.6677C67.4816 61.1247 67.2753 60.9471 67.0264 60.7368L67.0286 60.7391Z" fill="white"/>
<path d="M51.9814 49.0124V48.503C52.2192 48.225 52.5084 48.1829 52.8627 48.2414C52.9435 48.4072 53.0377 48.5988 53.1072 48.739C52.939 48.9143 52.8112 49.0474 52.6833 49.1783C52.4524 49.3372 52.2304 49.2063 51.9814 49.0147V49.0124Z" fill="white"/>
<path d="M36.6273 43.6172C36.6273 44.2738 36.6093 44.8789 36.6317 45.4794C36.6587 46.1874 36.338 46.643 35.7527 46.9374C35.7213 46.9537 35.6832 46.9514 35.6518 46.9654C35.6361 46.9724 35.6249 46.9911 35.6293 46.9864C35.4096 47.2037 35.3804 47.4584 35.3939 47.7271C35.4006 47.8813 35.3939 48.0379 35.3939 48.1944C35.3939 48.8416 35.2952 48.9888 34.6651 49.2785C34.3937 49.2295 34.1919 49.0776 34.0955 48.7925C33.9923 48.4888 33.7681 48.2692 33.5304 48.1196C33.2209 47.9257 33.0191 47.664 32.8195 47.3346C32.8195 45.7715 32.815 44.1803 32.824 42.5892C32.824 42.3906 32.898 42.1943 32.9316 42.0238C33.1469 41.5728 33.5864 41.5845 33.9452 41.47C34.2973 41.3579 34.6426 41.5448 34.9678 41.692C35.2526 41.8205 35.3288 42.1429 35.4993 42.3766C35.6092 42.5284 35.6899 42.671 35.8738 42.7457C36.2034 42.8766 36.4366 43.1126 36.5196 43.4887C36.5308 43.5378 36.5891 43.5752 36.6273 43.6196V43.6172Z" fill="#0808FF"/>
<path d="M42.1635 41.6898H42.6389C42.7488 41.837 42.9125 41.9959 43 42.1922C43.1345 42.4959 43.3296 42.7366 43.6211 42.837C43.8566 42.9188 43.9956 43.0987 44.1123 43.2693C44.2154 43.4188 44.2311 43.6525 44.2356 43.8511C44.249 44.4539 44.2423 45.0567 44.2401 45.6595C44.2401 46.0988 44.0853 46.4843 43.7108 46.6922C43.4373 46.8441 43.2668 47.0894 43.0628 47.3021C42.8609 47.5123 42.7062 47.7717 42.5223 48.0217C42.0716 48.0591 41.6388 48.0965 41.2486 48.1292C40.7462 47.8348 40.6947 47.7834 40.4345 47.3371C40.4345 46.2343 40.4144 45.1081 40.4435 43.9819C40.457 43.4492 40.6476 42.9632 41.1723 42.7483C41.3046 42.6945 41.4168 42.6244 41.4683 42.524C41.6343 42.1922 41.9168 41.9772 42.1635 41.6875V41.6898Z" fill="#0808FF"/>
<path d="M25.2148 47.2879C25.1408 46.3954 25.3202 45.4702 25.0758 44.5029C24.8111 44.3066 24.5084 44.0846 24.2012 43.858V43.1407C24.4591 42.9094 24.7483 42.6827 24.9995 42.4164C25.2507 42.1477 25.4615 41.8416 25.7059 41.5332C25.827 41.5846 25.9503 41.5963 26.0131 41.6687C26.2082 41.8883 26.4459 42.0612 26.585 42.3486C26.6747 42.5285 26.8496 42.6898 27.0738 42.7762C27.5717 42.9631 27.7488 43.4328 27.7645 43.9117C27.8026 44.9959 27.7735 46.0847 27.7802 47.1688C27.7802 47.3697 27.6838 47.5216 27.5806 47.6641C27.4685 47.816 27.3227 47.9422 27.177 48.094H25.9436C25.6409 47.9492 25.3628 47.7295 25.2148 47.2903V47.2879Z" fill="#0808FF"/>
<path d="M19.0478 45.8042C19.3797 45.5588 19.7273 45.3018 19.9784 45.1149C20.2117 44.6126 20.1466 44.192 20.1646 43.7784C20.1915 43.1943 20.5301 42.8625 21.0818 42.8555C21.38 42.8532 21.6783 42.8555 21.9765 42.8555C22.2561 43.0222 22.4729 43.2395 22.6268 43.5074C22.6268 44.449 22.6224 45.4163 22.6291 46.3836C22.6291 46.5612 22.6717 46.7411 22.6964 46.9374C22.6672 47.1289 22.6336 47.3462 22.5865 47.6476C22.3981 47.7738 22.1447 47.9397 21.8532 48.1313C21.4787 48.0962 21.0661 48.0565 20.64 48.0168C20.4539 47.7645 20.2946 47.5075 20.0995 47.2925C19.9403 47.1173 19.7811 46.9444 19.5703 46.8088C19.2451 46.5986 18.9895 46.2925 19.0433 45.8042H19.0478Z" fill="#0808FF"/>
<path d="M44.8908 25.5913C44.8034 25.5422 44.7406 25.5119 44.68 25.4745C44.3751 25.2876 44.236 25.0165 44.2383 24.6427C44.2427 22.6987 44.2405 20.7548 44.2405 18.8132V11.6893C43.8907 11.3505 43.5094 10.986 43.126 10.6168V10.2407C43.2964 10.1098 43.4377 9.92757 43.6462 9.79205C43.8839 9.63784 44.0746 9.37382 44.2338 9.12382C44.5163 8.68223 44.9312 8.52101 45.3976 8.44391C45.5075 8.42521 45.6219 8.44157 45.734 8.44157C49.6898 8.44157 53.6456 8.43923 57.6014 8.44624C58.0521 8.44624 58.5185 8.3411 58.9558 8.58877C59.3348 8.89718 59.4739 9.33644 59.4716 9.84345C59.4716 15.3038 59.4716 20.7665 59.4716 26.1871C59.3034 26.5726 59.0837 26.8483 58.6733 26.8787C58.3773 26.6778 58.1867 26.395 58.0902 26.0656C57.8391 25.9083 57.5767 25.8273 57.3031 25.8226C57.1932 25.9581 57.0721 26.103 56.8995 26.3133C56.8995 26.2852 56.8995 26.36 56.8927 26.4394C56.7694 26.5306 56.6438 26.624 56.4779 26.7455H55.9531C55.7917 26.6287 55.6212 26.4885 55.6549 26.2292C55.2781 25.7478 54.7915 25.5796 54.2197 25.582C54.0133 25.582 53.8048 25.6404 53.5828 25.4932C53.4236 25.388 53.2711 25.2992 53.206 25.1263C53.1051 24.853 52.9302 24.6474 52.7351 24.4651C52.244 24.2291 51.7305 24.3156 51.2237 24.3062C50.7954 24.2992 50.3648 24.3062 49.8759 24.3062C49.5306 24.7151 49.1561 25.1567 48.7906 25.589H44.8908V25.5913ZM45.586 14.5795C45.8147 14.7524 45.9807 14.972 46.2139 15.1356C46.4718 15.3178 46.7633 15.5421 46.853 15.8926C46.9225 16.166 47.1446 16.2407 47.3464 16.3739C48.2568 16.3739 49.1897 16.3739 50.1204 16.3739C50.3244 16.1636 50.5016 15.944 50.6429 15.6706C50.764 15.4393 50.9927 15.236 51.2169 15.1005C51.5062 14.9276 51.7439 14.7407 51.8583 14.4089C51.8583 14.0398 51.8628 13.6706 51.8561 13.3038C51.8561 13.1963 51.8247 13.0865 51.7933 12.9813C51.6587 12.5327 51.2909 12.4253 50.9164 12.4136C50.154 12.3879 49.3893 12.3996 48.6268 12.4066C48.1559 12.4112 47.6783 12.3365 47.1692 12.5701C47.1311 12.7313 46.8867 12.7827 46.8059 13.0374C46.6938 13.3949 46.4023 13.6285 46.0771 13.8108C45.891 13.9159 45.734 14.0725 45.5882 14.1846V14.5748L45.586 14.5795ZM51.3156 20.3366C50.9882 20.4791 50.8155 20.6567 50.6698 20.9137C50.4679 21.2735 50.2415 21.6427 49.7885 21.7501C49.6808 21.7758 49.6046 21.9347 49.5216 22.0235V22.6333C49.6584 22.7758 49.7773 22.8997 49.8961 23.0235H56.202C56.3882 22.8623 56.5945 22.6847 56.7784 22.5258V22.1941C56.6281 22.0165 56.507 21.8716 56.368 21.7057C56.0518 21.6777 55.7311 21.624 55.4104 21.631C55.0763 21.638 54.8117 21.5282 54.5986 21.2712C54.3744 20.9978 54.1569 20.7197 53.9618 20.4744C53.0334 20.2104 52.1274 20.409 51.3156 20.3366Z" fill="#0808FF"/>
<path d="M16.1977 61.2949C16.2515 61.3487 16.3031 61.4047 16.3569 61.4608V61.9561C16.4578 62.316 16.6843 62.4351 16.913 62.58C17.1597 62.7365 17.3593 62.9725 17.579 63.1734V64.6291C17.4467 64.8137 17.2853 65.0356 17.1305 65.2459H15.6034C15.3567 64.9468 15.1056 64.5987 14.8118 64.2926C14.5203 63.9889 14.1861 63.7249 13.8789 63.4515C13.9462 63.0683 14.0785 62.7996 14.4216 62.6571C14.7288 62.5309 14.9374 62.2809 15.0921 61.9725C15.3657 61.4234 15.6034 61.2879 16.2021 61.2973L16.1977 61.2949Z" fill="#0808FF"/>
<path d="M37.9678 63.4915C37.9678 63.0827 38.1292 62.8023 38.3647 62.7088C38.858 62.5102 39.1137 62.1294 39.3357 61.6784C39.385 61.5803 39.4904 61.5125 39.5801 61.4167H40.0555C40.1228 61.4915 40.2663 61.585 40.3134 61.7135C40.4592 62.1177 40.7126 62.3934 41.0714 62.606C41.2598 62.7182 41.3921 62.9261 41.5535 63.092V63.585C41.28 63.7883 40.9593 63.9682 40.7126 64.2229C40.4637 64.4799 40.2888 64.8116 40.0757 65.1201H39.5644C39.4187 64.9261 39.2213 64.7392 39.1227 64.5079C39.0173 64.2626 38.8446 64.1504 38.6473 64.0219C38.4028 63.8654 38.1853 63.6621 37.97 63.4915H37.9678Z" fill="#0808FF"/>
<path d="M31.4736 63.099V63.5757C31.3727 63.6621 31.2741 63.7836 31.1485 63.8467C30.7471 64.0453 30.4511 64.335 30.2178 64.7346C30.0945 64.9472 29.8546 65.0874 29.6752 65.2509C29.3836 65.2509 29.1235 65.2322 28.8679 65.2556C28.361 65.3 27.9933 65.1154 27.7802 64.5453C27.7802 64.328 27.8004 64.036 27.7758 63.7509C27.7399 63.3537 27.8901 63.0593 28.1637 62.8093C28.2063 62.7719 28.2422 62.7275 28.2848 62.6855C29.0473 62.6855 29.8097 62.7042 30.5722 62.6785C30.9534 62.6644 31.2359 62.8023 31.4736 63.099Z" fill="#0808FF"/>
<path d="M22.0281 65.2623C21.4092 65.2039 20.7543 65.4235 20.326 64.9025C20.0883 64.3441 20.1847 63.8301 20.1668 63.4258C20.3597 62.7109 20.9046 62.7109 21.3643 62.5684C21.8038 62.7319 22.3488 62.6712 22.6291 63.295C22.6291 63.2903 22.6381 63.3838 22.6582 63.4726C22.6784 63.559 22.7614 63.6712 22.7322 63.7226C22.5506 64.045 22.665 64.3908 22.6156 64.767C22.434 64.9189 22.2254 65.0941 22.0281 65.2623Z" fill="#0808FF"/>
<path d="M34.1687 64.6155C34.1396 64.4145 34.0746 64.1038 34.0566 63.793C34.0342 63.4098 34.1396 63.0617 34.4423 62.8047H34.8908C35.0568 62.9776 35.225 63.1575 35.3954 63.3351C35.3954 63.5827 35.4133 63.8351 35.3909 64.0827C35.3707 64.2977 35.3035 64.508 35.2496 64.765C35.1061 64.9472 34.8908 65.0944 34.68 65.1482C34.5029 64.9613 34.3616 64.8141 34.171 64.6131L34.1687 64.6155Z" fill="#0808FF"/>
<path d="M45.5862 14.5796V14.1894C45.732 14.0749 45.8912 13.9184 46.0751 13.8156C46.4003 13.6334 46.6895 13.3997 46.8039 13.0422C46.8846 12.7875 47.1291 12.7385 47.1672 12.5749C47.6762 12.3413 48.1539 12.416 48.6248 12.4114C49.3873 12.4044 50.152 12.3903 50.9144 12.4184C51.2889 12.4324 51.6567 12.5375 51.7912 12.9861C51.8226 13.0913 51.8518 13.1988 51.854 13.3086C51.8608 13.6777 51.8563 14.0446 51.8563 14.4137C51.7419 14.7455 51.502 14.9324 51.2149 15.1053C50.9884 15.2408 50.7619 15.4418 50.6408 15.6754C50.4996 15.9465 50.3224 16.1684 50.1183 16.3764C49.1877 16.3764 48.2571 16.3764 47.3444 16.3764C47.1425 16.2432 46.9205 16.1684 46.851 15.8951C46.7613 15.5423 46.472 15.3203 46.2119 15.138C45.9809 14.9745 45.8127 14.7572 45.584 14.582L45.5862 14.5796Z" fill="white"/>
<path d="M51.3155 20.3367C52.1273 20.4092 53.0333 20.2106 53.9616 20.4746C54.159 20.7199 54.3765 20.998 54.5985 21.2713C54.8116 21.5307 55.0762 21.6382 55.4103 21.6312C55.731 21.6241 56.0517 21.6779 56.3679 21.7059C56.5069 21.8718 56.6302 22.0167 56.7782 22.1942V22.526C56.5944 22.6849 56.388 22.8625 56.2019 23.0237C54.076 23.0237 51.986 23.0237 49.896 23.0237C49.7771 22.8999 49.6583 22.776 49.5215 22.6335V22.0237C49.6045 21.9349 49.6807 21.776 49.7883 21.7503C50.2413 21.6428 50.4678 21.2737 50.6696 20.9139C50.8132 20.6568 50.9858 20.4793 51.3155 20.3367Z" fill="white"/>
</svg>
