<svg width="77" height="65" viewBox="0 0 77 65" fill="none" xmlns="http://www.w3.org/2000/svg">
<path d="M60.9436 61.4488V53.0191C59.7016 52.9629 58.5877 52.9098 57.2737 52.8473V45.3546C57.3895 45.2828 57.5052 45.1548 57.6304 45.1454C59.9811 44.9663 61.1564 43.6452 61.1564 41.182C61.1564 29.5666 61.1189 17.9512 61.1971 6.33584C61.2096 4.48687 60.7121 3.90907 58.813 3.92781C49.3487 4.0215 39.8845 3.96841 30.4202 3.97466C29.7601 3.97466 29.0968 4.04649 28.2833 4.09334V32.7211H52.612V36.4908H4.0204V36.2972L3.33834 37.0405H3.44159V44.7081H3.28516L4.07046 45.3546V45.1891H7.51201V52.8348H7.27735L8.12523 53.6125V53.3845H11.6387V60.9397H11.11L12.2175 61.6674V61.4394H60.9374L60.9436 61.4488ZM53.1438 36.9812H56.7011V44.68H53.1438V36.9812ZM32.5321 12.5823H52.5525V16.0929H32.5321V12.5823ZM32.5947 28.3548V24.8005H52.6401V28.3548H32.5947Z" fill="#white"/>
<path d="M72.9174 16.2334H65.127V61.2551H72.9236V61.5424L73.5243 60.7429V16.5738L72.9174 16.2334Z" fill="#white"/>
<path d="M24.1477 32.5869V12.2077H16.2384V12.1952L15.791 12.8042V32.5869H24.1477Z" fill="#white"/>
<path d="M25.5962 10.3742V2.72534L63.0684 2.00699L63.4282 14.3345H69.5354L72.9206 16.2303H72.9801V12.2919H64.8517V0.35791H24.1945V8.35344H16.2383V12.195L17.5742 10.3742H25.5962Z" fill="#F21D44"/>
<path d="M13.9822 34.1579V15.2747L15.7937 12.8042V12.5168H12.0299V32.8336H4.02051V36.3035L5.00291 35.2323L13.9822 34.1579Z" fill="#F21D44"/>
<path d="M13.2624 62.3638L12.2236 61.6798V65.0029H72.9263V61.5424L71.3276 63.6787L13.2624 62.3638Z" fill="#F21D44"/>
<path d="M65.1301 61.2549V16.2332H72.9206L69.5353 14.3374H63.4281L63.0683 2.00989L25.5961 2.72824V10.3771H17.5742L16.2382 12.1979V12.2104H24.1475V32.5897H15.7908V12.807L13.9793 15.2775V34.1607L4.99998 35.2351L4.01758 36.3063V36.5H52.6123V32.7302H28.2836V4.09622C29.0971 4.04937 29.7572 3.97754 30.4205 3.97754C39.8848 3.97129 49.3491 4.02126 58.8133 3.93069C60.7093 3.91195 61.2099 4.48975 61.1974 6.33872C61.1192 17.9541 61.1567 29.5695 61.1567 41.1849C61.1567 43.6501 59.9814 44.9713 57.6307 45.1483C57.5055 45.1576 57.3898 45.2888 57.274 45.3575V52.8502C58.5881 52.9127 59.7019 52.9626 60.944 53.022V61.4516H12.2241V61.6796L13.2628 62.3636L71.3281 63.6785L72.9268 61.5422V61.2549H65.1301Z" fill="#F21D44"/>
<path d="M73.5273 16.524V16.574L75.2638 17.5454V58.4194L73.5273 60.74V60.943H77.0002V16.524H73.5273Z" fill="#F21D44"/>
<path d="M75.2638 17.5451L73.5273 16.5737V60.7397L75.2638 58.4191V17.5451Z" fill="#F21D44"/>
<path d="M52.5527 12.5823H32.5322V16.0928H52.5527V12.5823Z" fill="#F21D44"/>
<path d="M52.6402 24.8005H32.5947V28.3548H52.6402V24.8005Z" fill="#F21D44"/>
<path d="M56.7009 36.9813H53.1436V44.6801H56.7009V36.9813Z" fill="#F21D44"/>
<path d="M2.36841 38.1024L3.3383 37.0468H0V44.7143H3.28825L2.37154 43.9585V38.1024H2.36841Z" fill="#F21D44"/>
<path d="M3.4413 37.0468H3.33806L2.36816 38.1024V43.9585L3.28487 44.7143H3.4413V37.0468Z" fill="#F21D44"/>
<path d="M5.12155 46.2293L4.07031 45.3641V52.8474H7.28034L6.31984 51.9667L5.12155 46.2293Z" fill="#F21D44"/>
<path d="M7.51479 45.1985H4.07324V45.364L5.12448 46.2292L6.32276 51.9666L7.28327 52.8473H7.51792V45.2016L7.51479 45.1985Z" fill="#F21D44"/>
<path d="M9.19266 54.5935L8.12891 53.619V60.9462H11.1168L11.1074 60.9399L9.19266 54.5904V54.5935Z" fill="#F21D44"/>
<path d="M11.6444 53.3938H8.13086V53.6218L9.19461 54.5963L11.1094 60.9458L11.1188 60.9521H11.6475V53.3969L11.6444 53.3938Z" fill="#F21D44"/>
</svg>
