<svg width="71" height="71" viewBox="0 0 71 71" fill="none" xmlns="http://www.w3.org/2000/svg">
<g id="Layer 1">
<g id="Group">
<path id="Vector" d="M70.9974 57.8198C70.8994 57.8512 70.7538 57.8512 70.7141 57.9165C70.5181 58.2275 70.3063 58.5254 70.3275 58.9357C70.3593 59.5211 70.2905 60.1144 70.3487 60.6945C70.4175 61.3714 70.0654 61.7947 69.5677 62.1136C69.2102 62.3409 68.9455 62.6258 68.7628 62.9786C68.649 63.1955 68.5351 63.3419 68.2995 63.4385C68.003 63.5614 67.7726 63.7913 67.5529 64.0213C67.3649 64.2173 67.2907 64.4368 67.296 64.7008C67.304 64.983 67.3013 65.2653 67.296 65.5475C67.2855 66.1407 66.8645 66.5537 66.2556 66.5563C65.0218 66.5615 63.788 66.5563 62.5569 66.5589C61.8924 66.5589 61.3602 67.0894 61.3523 67.7453C61.3523 67.9832 61.3576 68.2236 61.3523 68.4614C61.3364 68.9841 60.9181 69.4022 60.3965 69.4257C60.2641 69.431 60.1317 69.4257 59.9993 69.4257C50.4866 69.4257 40.9713 69.4257 31.4586 69.4179C31.0853 69.4179 30.7596 69.4911 30.4419 69.6792C30.2539 69.7916 30.1162 69.904 30.0209 70.113C29.9203 70.3352 29.7456 70.5286 29.5761 70.7115C29.3829 70.9206 29.1287 71.0173 28.8348 70.9885C28.3344 70.9415 27.7837 71.1453 27.3522 70.7481C27.1695 70.5808 26.9948 70.377 26.8889 70.1575C26.7353 69.8334 26.505 69.6165 26.1846 69.4806C25.7822 69.3081 25.5704 69.0233 25.5254 68.5816C25.5042 68.3621 25.3824 68.1609 25.393 67.9178C25.4168 67.4814 25.5148 67.0946 25.8695 66.8045C25.9543 66.7366 26.0258 66.653 26.1264 66.5537C26.5394 66.5537 26.9789 66.5484 27.4157 66.5537C27.842 66.5589 28.1306 66.3733 28.3106 65.9918C28.5224 65.5423 28.8798 65.2287 29.3114 64.983C29.5126 64.8707 29.6926 64.7217 29.8939 64.5806C29.8939 63.0674 29.9018 61.5726 29.8886 60.0752C29.8859 59.7014 29.7112 59.4035 29.3379 59.2467C28.676 58.9671 28.4297 58.4418 28.435 57.7571C28.443 56.6255 28.435 55.4966 28.4377 54.365C28.4377 53.9678 28.766 53.513 29.0678 53.3223C29.2452 53.2099 29.4041 53.2517 29.5656 53.2491C31.26 53.2412 32.9571 53.2517 34.6515 53.2386C35.1837 53.2334 35.647 53.0635 35.8509 52.5095C35.8932 52.3971 35.9541 52.2821 35.9621 52.1645C35.978 51.9058 35.9674 51.6419 35.9674 51.3832C35.9674 50.9441 35.7741 50.6383 35.3452 50.4711C35.054 50.3587 34.776 50.2411 34.4503 50.2333C34.1829 50.2281 33.9261 50.2699 33.6349 50.1314C33.0815 49.8674 32.9306 49.7576 32.928 49.1827C32.9253 48.464 32.9386 47.748 32.92 47.0319C32.9147 46.7889 32.8512 46.5432 32.7876 46.3054C32.7638 46.2139 32.6712 46.112 32.5838 46.0728C31.9113 45.7618 31.2097 45.6991 30.5081 45.9474C30.3386 46.0075 30.1798 46.18 30.0845 46.3394C29.8065 46.7993 29.5523 47.2724 28.9725 47.4265C28.7475 47.7036 28.488 47.9623 28.3106 48.2654C28.0829 48.6574 27.7679 48.8116 27.3284 48.809C26.1608 48.8012 24.9932 48.8221 23.8283 48.8012C23.1373 48.7881 22.6077 49.0416 22.3721 49.6714C22.2291 50.053 21.8955 50.1575 21.6387 50.3221C21.321 50.5286 21.0642 50.7612 20.9265 51.08C20.765 51.4537 20.4765 51.5739 20.1243 51.6837C19.6822 51.8222 19.2374 51.8065 18.79 51.8065C13.4816 51.8065 8.17585 51.8013 2.86748 51.8144C2.27442 51.8144 1.88787 51.6131 1.57811 51.0931C1.36895 50.7429 1.12008 50.3927 0.651461 50.215C0.243735 50.0608 -0.0077838 49.6531 0.0133967 49.1409C0.0398724 48.5111 0.0663481 47.876 0.00810161 47.2514C-0.0580876 46.5772 0.288744 46.1538 0.775896 45.8167C1.05919 45.6207 1.28688 45.4038 1.48544 45.1242C1.68136 44.8446 1.92759 44.5701 2.21353 44.3846C2.57889 44.1468 2.87277 43.8828 3.09517 43.5091C3.2249 43.2922 3.43141 43.0884 3.65116 42.9603C4.02976 42.7408 4.28922 42.4429 4.53809 42.0901C4.86374 41.6275 5.32177 41.3479 5.9466 41.3662C6.9818 41.3923 8.017 41.3505 9.0522 41.3819C9.63466 41.4002 10.1165 41.2799 10.466 40.7416V18.7476C10.466 17.8565 10.4369 16.9627 10.4766 16.0742C10.5004 15.5358 10.233 15.1987 9.865 14.8903C9.77233 14.8119 9.66114 14.744 9.54729 14.7048C9.08132 14.5427 9.00454 14.1847 9.00983 13.7587C9.02042 12.8467 9.01248 11.9372 9.01248 10.9964C9.32225 10.7482 9.66114 10.5156 9.94972 10.2359C10.2701 9.92495 10.5507 9.57215 10.842 9.23503C10.977 9.07823 11.1464 9.05209 11.345 9.00767C12.2054 8.80382 13.0739 8.89791 13.937 8.89529C21.3369 8.88484 28.7369 8.88745 36.1342 8.89529C36.6928 8.89529 37.1085 8.76724 37.3759 8.23673C37.5506 7.89177 37.8048 7.60691 38.2072 7.43443C38.4746 7.31944 38.7129 7.03981 38.8665 6.77848C39.0518 6.46226 39.2398 6.18786 39.584 6.04151C40.0579 5.83767 40.3438 5.42999 40.5821 5.02231C40.7224 4.78449 40.8707 4.62769 41.1116 4.53622C41.5829 4.35851 41.7947 3.93254 42.0462 3.55622C42.1653 3.37589 42.2818 3.24261 42.483 3.13808C42.8537 2.9473 43.1502 2.68074 43.3991 2.31487C43.6268 1.97775 43.9339 1.64586 44.3363 1.44201C44.5217 1.34793 44.7255 1.18329 44.7997 1.00036C44.9056 0.739023 45.12 0.605742 45.2842 0.417581C45.6257 0.0281917 46.1049 -0.0580488 46.5629 0.0334185C47.0448 0.130112 47.5664 0.234646 47.8655 0.801744V5.41431C47.8655 10.5887 47.8682 15.7632 47.8603 20.9376C47.8603 21.5152 48.1462 21.8575 48.6307 22.1215C48.8107 22.2182 48.9643 22.1737 49.1311 22.192C49.4091 22.2234 49.6897 22.2182 49.9677 22.2521C50.386 22.3044 50.664 22.5997 50.8732 22.9029C51.1168 23.2609 51.3948 23.5379 51.7575 23.7757C52.054 23.9691 52.3267 24.2409 52.4617 24.5885C52.5597 24.8446 52.7185 24.9831 52.9701 25.0928C53.4095 25.2836 53.7431 25.626 53.9311 26.0519C54.0264 26.2688 54.1482 26.4074 54.3389 26.4988C54.8128 26.721 55.1728 27.0424 55.4349 27.4997C55.5488 27.701 55.75 27.8656 55.9433 28.0067C56.126 28.1374 56.3378 28.208 56.5866 28.2053C57.7966 28.1923 59.0092 28.1975 60.2191 28.2001C60.9445 28.2001 61.3443 28.6 61.3443 29.3239C61.3443 36.9104 61.3417 44.497 61.3523 52.0861C61.3523 52.6376 61.1325 52.9982 60.6427 53.2229C60.2826 53.3876 60.0232 53.6437 59.8564 53.9991C59.6287 54.4826 59.266 54.7152 58.702 54.6969C58.3711 54.6864 58.0428 54.6786 57.6907 54.7831C57.2829 54.9033 56.9917 55.1542 56.8805 55.4417C56.7164 55.8624 56.3801 56.0166 56.0783 56.2518C55.9274 56.3694 55.7606 56.4713 55.6388 56.6099C55.4879 56.7797 55.3952 56.9809 55.3952 57.2266C55.4005 59.5316 55.3952 61.8366 55.4032 64.1389C55.4032 64.4551 55.5091 64.6903 55.8427 64.8785C56.2716 65.1242 56.7005 65.4142 56.9335 65.9029C57.0129 66.0702 57.1982 66.1904 57.3465 66.3185C57.4206 66.3838 57.5265 66.4125 57.6165 66.4596C58.0296 66.6791 58.4796 66.5667 58.8953 66.5275C59.1442 66.504 59.4487 66.3733 59.6419 66.1042C59.7955 65.8899 59.8987 65.686 59.8987 65.4221C59.8934 64.5309 59.8987 63.6398 59.8987 62.7434C60.2323 62.2233 60.7407 62.1057 61.3258 62.1136C62.4033 62.1293 63.4836 62.1188 64.5638 62.1162C65.3263 62.1162 65.8425 61.6144 65.8452 60.8748C65.8452 59.7877 65.8452 58.7005 65.8452 57.6134C65.8452 56.9444 65.9273 56.7536 66.4409 56.2466C66.8221 56.2466 67.2352 56.2466 67.6508 56.2466C68.326 56.2414 68.8449 55.7605 68.8846 55.0889C68.9005 54.8066 68.8846 54.5244 68.8872 54.2422C68.8978 53.6881 69.3241 53.2569 69.8774 53.2465C70.2507 53.2386 70.6267 53.2465 71 53.2465V57.812L70.9974 57.8198ZM41.3525 13.3092C40.8257 13.419 40.3173 13.2596 39.7958 13.4451C39.2053 13.6542 38.8903 13.9286 38.8823 14.5297C38.8823 14.7675 38.8771 15.0079 38.8823 15.2457C38.8956 15.6796 38.7341 15.9958 38.329 16.2101C37.9398 16.4139 37.5956 16.6909 37.3891 17.0934C37.1905 17.4802 36.8861 17.7258 36.4916 17.9166C36.2824 18.0159 36.1024 18.2432 35.9859 18.4549C35.7662 18.8522 35.4961 19.171 35.0619 19.3382C34.731 19.4663 34.6145 19.7485 34.5244 20.0517C34.4715 20.2268 34.4159 20.4045 34.3947 20.5848C34.3735 20.7782 34.3947 20.9768 34.3894 21.1702C34.3815 21.7974 33.9605 22.2025 33.3092 22.2077C32.5838 22.2129 31.8557 22.2051 31.1303 22.2129C30.9661 22.2129 30.8152 22.2234 30.6405 22.3018C30.1215 22.5318 29.9283 22.9447 29.9071 23.436C29.8727 24.2174 29.9044 25.0014 29.8965 25.7828C29.8912 26.3159 29.5788 26.6321 29.0493 26.6452C28.7422 26.653 28.4324 26.6504 28.1253 26.6452C27.6699 26.6373 27.3575 26.7941 27.1033 27.2175C26.8571 27.6278 26.5791 28.059 26.0363 28.2289C25.7981 28.302 25.6233 28.5581 25.4989 28.8247C25.2421 29.384 24.7655 29.6453 24.146 29.6479C23.9474 29.6479 23.7488 29.6479 23.5503 29.6479C22.9149 29.6558 22.5018 30.0713 22.4992 30.7115C22.4939 31.3858 22.486 32.06 22.4992 32.7317C22.5151 33.4843 21.885 34.1115 21.1251 34.0828C20.9265 34.0749 20.7227 34.0514 20.5321 34.088C20.1534 34.1612 19.7404 34.1847 19.5789 34.6551C19.5154 34.8406 19.3618 35.0105 19.2162 35.1569C19.0706 35.3032 18.8985 35.4391 18.7132 35.5253C18.3028 35.7109 18.0963 36.0715 17.8765 36.4165C17.7124 36.6726 17.5297 36.8738 17.2411 36.994C16.8784 37.1456 16.611 37.4096 16.4574 37.7676C16.3357 38.0524 16.1318 38.2354 15.8697 38.3922C15.2475 38.7659 15.139 38.826 14.8504 39.3722C14.6783 39.6989 14.44 39.9053 14.1382 40.0386C13.6616 40.2477 13.5001 40.5979 13.5081 41.0813C13.5186 41.7111 13.4975 42.3436 13.5133 42.9734C13.5319 43.6032 13.238 44.0396 12.7376 44.3951C12.4834 44.5754 12.2478 44.8001 12.0625 45.0458C11.6998 45.5214 11.3159 45.8873 10.6381 45.8324C10.0927 45.788 9.5367 45.8455 8.98865 45.8141C8.67889 45.7958 8.40354 45.903 8.13349 45.9918C7.60397 46.1669 7.5219 46.6138 7.9058 47.0084C8.05936 47.1652 8.18909 47.3795 8.37706 47.4553C8.72654 47.599 8.86422 47.876 9.02042 48.1687C9.0972 48.3151 9.2137 48.4588 9.34872 48.5529C9.78028 48.8534 10.5772 48.8691 11.1755 48.7306C11.5303 48.647 11.7236 48.4379 11.9222 48.1949C12.0016 48.0982 12.0943 48.0015 12.1313 47.8891C12.2822 47.4474 12.6317 47.3821 13.0341 47.3821C14.2441 47.3873 15.4567 47.3664 16.6666 47.3926C17.1167 47.403 17.4529 47.2567 17.7362 46.9195C17.7362 46.781 17.7203 46.6269 17.7415 46.4779C17.768 46.3002 17.678 46.193 17.5535 46.0963C17.355 45.9395 17.1538 45.8063 16.8784 45.8167C16.4389 45.8298 15.9968 45.8193 15.5573 45.8219C15.4487 45.7148 15.3402 45.6076 15.2263 45.4953C15.2263 45.3489 15.2263 45.1973 15.2263 45.0458C15.2316 44.6015 15.4143 44.416 15.8776 44.3898C16.01 44.382 16.1424 44.3898 16.2748 44.3898C18.4113 44.3898 20.5453 44.3898 22.6819 44.3872C22.8672 44.3872 23.0817 44.4708 23.222 44.2618C23.6959 44.2304 23.8892 43.8384 24.0666 43.5196C24.3075 43.0858 24.6384 42.9446 25.0965 42.9551C25.3374 42.9603 25.5916 42.9995 25.8219 42.9473C26.4467 42.8061 26.6771 42.7016 26.8809 42.1423C27.0212 41.753 26.9709 41.3897 26.9842 41.016C26.9974 40.6005 27.1457 40.2842 27.5137 40.0909C27.985 39.84 28.3371 39.4924 28.5886 39.0194C28.7633 38.6875 29.0758 38.5124 29.4755 38.5229C29.7165 38.5281 29.96 38.5229 30.201 38.5229C30.9635 38.5202 31.4824 38.0211 31.4877 37.2841C31.4877 37.0228 31.4797 36.7615 31.493 36.5027C31.4983 36.3825 31.5459 36.2649 31.5804 36.1499C31.7392 35.6325 32.2105 35.5672 32.6261 35.5358C33.3489 35.4861 34.077 35.5253 34.8051 35.5201C34.9481 35.5201 35.0804 35.5018 35.2313 35.4365C35.7741 35.1961 35.9568 34.7622 35.9727 34.2422C35.9965 33.5052 35.9727 32.763 35.9806 32.0261C35.9886 31.5713 36.256 31.3361 36.6822 31.2081C37.0846 31.0879 37.4818 31.0957 37.8869 31.0879C38.4429 31.0774 38.8718 30.6514 38.885 30.1C38.8903 29.8622 38.8612 29.6192 38.8903 29.384C38.9538 28.8848 39.0862 28.4222 39.629 28.1949C40.0102 28.0355 40.2935 27.748 40.4576 27.3743C40.5847 27.0868 40.778 26.9196 41.056 26.7706C41.3605 26.6086 41.6411 26.4178 41.8211 26.0624C42.0912 25.5267 42.2474 25.3855 42.7849 25.1085C43.1158 24.9387 43.325 24.7061 43.4626 24.4055C43.6109 24.0789 43.8386 23.8437 44.1642 23.7313C44.6223 23.5745 44.7123 23.1433 44.9479 22.8192C44.9426 22.0065 45.0459 21.1885 44.8897 20.3784C44.8738 20.2973 44.8447 20.2216 44.8341 20.1405C44.7811 19.7433 44.5932 19.4611 44.2013 19.2938C43.9948 19.2076 43.7459 19.0612 43.6639 18.8783C43.5368 18.5882 43.3726 18.2929 43.3779 17.9532C43.3859 17.3443 43.3647 16.7353 43.3832 16.1264C43.4017 15.5567 43.6136 15.0968 44.1748 14.8276C44.4184 14.71 44.6249 14.5192 44.8367 14.3676C44.8261 14.0567 44.9347 13.7875 44.9453 13.5366C44.9929 12.4076 44.9797 11.2761 44.9559 10.1471C44.9506 9.89359 44.8394 9.63226 44.7282 9.39705C44.5905 9.1122 44.2781 9.00767 44.0001 8.94756C43.6877 8.87961 43.3488 8.90052 43.0231 8.90836C42.4089 8.92404 42.0859 9.17492 41.9456 9.7394C41.9112 9.88314 41.927 10.0373 41.927 10.1889C41.927 10.905 41.9218 11.6236 41.927 12.3397C41.927 12.6036 41.8609 12.831 41.6623 13.0139C41.5511 13.1185 41.4425 13.2282 41.3552 13.3145L41.3525 13.3092ZM47.8682 36.1003V51.8144C47.8682 51.9659 47.8258 52.1358 47.8788 52.2665C47.9741 52.5095 47.9291 52.8623 48.1991 52.9721C48.4957 53.0923 48.7895 53.2595 49.1364 53.2569C50.3701 53.2491 51.6013 53.2517 52.835 53.2569C53.1607 53.2569 53.3698 53.0662 53.6081 52.8858C53.8464 52.7055 53.8146 52.4808 53.8146 52.2482C53.8146 51.945 53.8252 51.6393 53.8146 51.3361C53.7961 50.8709 54.4368 50.2281 54.9319 50.249C55.3714 50.2673 55.8135 50.2542 56.261 50.2542C56.4569 50.0582 56.6555 49.8596 56.8567 49.6583V33.9443C56.8567 33.8345 56.8673 33.7247 56.8567 33.6176C56.809 33.1733 56.7164 32.7578 56.2133 32.5879C55.8744 32.4729 55.6229 32.209 55.4402 31.9346C55.1993 31.574 54.916 31.3048 54.5586 31.0617C54.2674 30.8631 54.0503 30.5443 53.8252 30.262C53.5208 29.8857 53.2216 29.6139 52.6523 29.6244C50.4946 29.6636 48.3368 29.6531 46.179 29.6322C45.6231 29.627 45.2656 29.857 44.9612 30.283C44.7626 30.56 44.5402 30.8501 44.2622 31.033C43.8783 31.2839 43.5924 31.5818 43.3329 31.9529C43.1423 32.2247 42.8458 32.4311 42.5704 32.6376C42.2606 32.8728 41.9747 33.1211 41.935 33.5235C41.9032 33.8476 41.9112 34.1768 41.9323 34.5009C41.9747 35.1542 42.3692 35.5097 43.0364 35.5123C44.1801 35.5149 45.3265 35.4914 46.4703 35.5201C47.1401 35.5384 47.5214 35.6273 47.8761 36.1003H47.8682ZM34.5192 64.5884C34.5297 64.3088 34.5297 64.1494 34.678 63.9691C34.9428 63.6528 35.324 63.6136 35.6391 63.5823C36.3804 63.5117 37.135 63.53 37.8816 63.577C38.1463 63.5927 38.4323 63.76 38.6441 63.9351C38.8294 64.0867 38.9062 64.3428 38.8876 64.6119C38.8665 64.8942 38.8744 65.1764 38.8876 65.4587C38.9009 65.7487 38.9856 66.0258 39.1736 66.2531C39.3748 66.4962 39.6872 66.5432 39.9678 66.551C40.7807 66.5772 41.5961 66.5719 42.4116 66.5563C42.9728 66.5458 43.3647 66.0859 43.3779 65.6076C43.3859 65.3254 43.3832 65.0431 43.3779 64.7609C43.37 64.2408 43.6268 63.9063 44.0928 63.6868C44.5296 63.483 45.3451 63.5378 45.9275 63.7809C46.2691 63.9246 46.4094 64.152 46.4147 64.4891C46.4226 64.8367 46.4094 65.1843 46.42 65.5318C46.4226 65.673 46.4517 65.8062 46.5047 65.9526C46.6953 66.4857 47.1931 66.4936 47.577 66.538C48.2944 66.619 49.0278 66.5824 49.7533 66.5563C50.431 66.5301 50.9102 66.0022 50.9102 65.3306C50.9102 64.1128 50.9102 62.8976 50.9102 61.6798C50.9102 61.2668 50.7196 60.9898 50.3225 60.8147C49.83 60.5978 49.7612 60.556 49.0437 60.5639C48.5619 60.5691 48.2256 60.4253 47.9741 59.9654C47.6273 59.333 47.1613 59.1265 46.4332 59.1265C45.2895 59.1265 44.1431 59.1291 42.9993 59.1265C42.5545 59.1265 42.2474 59.2833 42.0462 59.6988C41.9323 59.9366 41.7364 60.1457 41.5458 60.3417C41.2201 60.6788 40.9157 60.6501 40.643 60.2738C40.5238 60.1091 40.4524 59.9157 40.3332 59.7485C40.0499 59.3513 39.6978 59.1056 39.163 59.1187C38.0192 59.1448 36.8728 59.1134 35.7291 59.1317C35.2287 59.1396 34.8051 59.3251 34.5165 59.7746C34.2756 60.1509 33.9499 60.4515 33.5634 60.6997C33.1557 60.9637 32.9015 61.3217 32.928 61.8575C32.9624 62.55 32.9359 63.2478 32.9359 63.9429C32.9359 64.4865 32.9412 65.0301 32.9359 65.5736C32.9306 65.9709 33.1106 66.2296 33.4787 66.3864C34.0029 66.6085 34.5218 66.572 35.136 66.4596C35.4723 66.3969 35.602 66.1747 35.8059 66.0049C35.8535 65.9657 35.8721 65.8167 35.8376 65.7697C35.7079 65.5972 35.6973 65.3672 35.4405 65.247C35.1043 65.0876 34.821 64.8158 34.5192 64.5936V64.5884ZM25.3639 23.091C25.4221 22.5318 25.4512 22.0039 25.5465 21.4864C25.5889 21.2486 25.6683 21.0134 25.9887 20.8827C26.4864 20.6815 26.8491 20.2712 27.1007 19.7982C27.1827 19.644 27.2278 19.5342 27.4131 19.4532C27.8605 19.252 28.1915 18.9175 28.4642 18.4941C28.6521 18.2014 29.0016 18.0133 29.269 17.7676C29.4888 17.5664 29.7271 17.3704 29.8912 17.1273C30.2486 16.5968 30.6802 16.2806 31.3659 16.325C32.0013 16.3669 32.642 16.3433 33.2801 16.3303C33.5713 16.325 33.8573 16.2388 34.0823 16.048C34.3444 15.8285 34.4159 15.5306 34.3947 15.1987C34.3788 14.8955 34.3974 14.5898 34.3894 14.2866C34.3762 13.8711 34.1511 13.5549 33.7646 13.4687C33.4363 13.3981 33.0974 13.338 32.7638 13.338C27.8129 13.3301 22.8619 13.3328 17.911 13.3328C17.7998 13.3328 17.6859 13.3119 17.5827 13.338C17.2438 13.4242 16.8731 13.4687 16.6851 13.8241C16.5898 14.0018 16.4363 14.1847 16.4336 14.3676C16.431 14.7623 16.5025 15.1569 16.5554 15.5515C16.566 15.6247 16.6454 15.6874 16.6798 15.7606C16.6984 15.7972 16.6692 15.8651 16.6931 15.8834C16.8916 16.0376 17.0134 16.2649 17.2835 16.3616C17.4979 16.4374 17.678 16.5864 17.813 16.8347C18.038 17.2502 18.3319 17.6526 18.8111 17.8512C19.0468 17.9479 19.2003 18.0969 19.3406 18.3373C19.5789 18.7424 19.8569 19.1605 20.3361 19.3539C20.6009 19.4611 20.7597 19.6492 20.8948 19.8975C21.0854 20.2425 21.3607 20.509 21.7076 20.7416C22.0279 20.9585 22.4065 21.1545 22.531 21.6223C22.5919 21.8523 22.899 22.0378 23.1267 22.1999C23.5979 22.5344 23.6535 22.5866 23.9554 23.0309C24.0745 23.2086 24.2492 23.3471 24.3975 23.5013C24.7629 23.5048 25.0859 23.368 25.3665 23.091H25.3639ZM14.1541 20.7704C13.6113 21.0996 13.4975 21.5727 13.5001 22.1476C13.5186 25.6443 13.5107 29.1435 13.5107 32.6428C13.5107 32.7735 13.4816 32.912 13.516 33.0322C13.6219 33.419 13.7093 33.8162 14.1541 34.0018C14.5803 34.1795 14.853 34.5244 15.0834 34.9086C15.1787 35.068 15.274 35.2405 15.4143 35.3555C15.6552 35.5541 16.0947 35.46 16.2695 35.1987C16.2906 35.1673 16.2695 35.1098 16.288 35.0758C16.4574 34.7858 16.5554 34.4826 16.5528 34.1403C16.5448 33.0322 16.5766 31.9241 16.5395 30.8161C16.521 30.2777 16.7593 29.8962 17.1696 29.6558C17.4847 29.4728 17.7627 29.2402 17.9189 28.9711C18.1916 28.5059 18.5993 28.2132 19.0229 27.9597C19.3486 27.7663 19.4545 27.5363 19.4545 27.2123C19.4598 25.8873 19.4571 24.5623 19.4545 23.2374C19.4545 22.8062 19.2798 22.5004 18.8535 22.3148C18.4166 22.1241 18.0778 21.7896 17.8845 21.3584C17.6965 20.9376 17.3867 20.7677 16.9499 20.7677C16.0047 20.7677 15.0569 20.7677 14.1514 20.7677L14.1541 20.7704ZM35.9171 39.3225C36.2295 39.5577 36.3936 39.8687 36.7405 39.9994C36.8914 40.0569 37.0079 40.2241 37.1164 40.36C37.3838 40.6919 37.3679 40.8723 37.0582 41.1623C36.9682 41.246 36.8596 41.3165 36.7563 41.3845C36.2321 41.7216 36.1739 41.7869 35.8429 42.273C35.7132 42.4638 35.5808 42.7042 35.3876 42.7905C35.1307 42.9028 34.9825 43.1014 34.7998 43.2739C34.5615 43.4987 34.588 43.8907 34.8422 44.1128C35.0328 44.2801 35.2446 44.3924 35.5173 44.3898C38.2893 44.3846 41.0613 44.3846 43.8333 44.3898C44.106 44.3898 44.3178 44.2801 44.5111 44.1128C44.6276 44.0135 44.7388 43.909 44.7652 43.8828C44.8473 43.517 44.9506 43.2556 44.9532 42.9943C44.9718 41.8444 44.977 40.6919 44.9532 39.5421C44.9426 38.9279 44.482 38.5176 43.8677 38.5176C41.6014 38.5176 39.3351 38.5176 37.0688 38.5176C36.6054 38.5176 36.248 38.664 36.0786 39.1265C36.0574 39.1814 36.0018 39.2232 35.9118 39.3278L35.9171 39.3225Z" fill="#F21D44"/>
<path id="Vector_2" d="M24.7851 38.5129C24.4356 38.5129 24.0808 38.5338 23.7339 38.5076C23.3632 38.4789 23.0189 38.3482 22.7065 38.1365C22.4073 37.9353 22.4152 37.5119 22.7012 37.3316C22.8918 37.2088 23.0692 37.0624 23.2652 36.9527C23.6068 36.7619 23.8795 36.5006 24.0278 36.1478C24.2132 35.7035 24.621 35.612 25.0076 35.5284C25.3015 35.4657 25.6192 35.4944 25.9238 35.5206C26.4666 35.565 26.9485 36.0641 26.9856 36.5737C27.0041 36.8325 26.9909 37.0938 26.9856 37.3525C26.9776 37.9667 26.4454 38.505 25.8337 38.5155C25.4842 38.5207 25.132 38.5155 24.7825 38.5155L24.7851 38.5129Z" fill="#F21D44"/>
<path id="Vector_3" d="M29.4392 31.2114C29.6749 31.4519 29.9079 31.6766 30.043 32.0085C30.1807 32.3482 30.5593 32.4658 30.8612 32.6462C31.2028 32.85 31.3352 33.2316 31.2213 33.5896C31.1578 33.7856 30.6838 34.073 30.3872 34.0757C29.8364 34.0809 29.2856 34.0757 28.7375 34.0757C28.4727 34.0757 28.2079 34.0835 27.9458 34.0757C27.5433 34.0626 27.2096 33.8013 27.1249 33.4485C27.0508 33.1479 27.2467 32.8056 27.6148 32.6174C28.0411 32.3979 28.3297 32.0477 28.5919 31.6583C28.9017 31.201 28.9149 31.2088 29.4419 31.2114H29.4392Z" fill="#F21D44"/>
<path id="Vector_4" d="M38.9204 24.4637C38.8727 24.5578 38.8515 24.6492 38.7959 24.6963C38.5391 24.9158 38.2981 25.1797 37.9989 25.3182C37.7367 25.4411 37.5911 25.6136 37.5116 25.8461C37.3792 26.2277 37.0641 26.361 36.7278 26.4812C36.5796 26.5335 36.4392 26.5439 36.3227 26.3976C36.1268 26.1493 35.9387 25.8906 35.711 25.671C35.3906 25.3601 35.0252 25.0935 34.6995 24.7877C34.4268 24.5316 34.4532 24.2807 34.718 24.0272C34.914 23.8391 35.1364 23.7633 35.4039 23.7659C35.8884 23.7738 36.373 23.7738 36.8576 23.7659C37.0218 23.7633 37.2124 23.8443 37.3422 23.6614C37.7658 23.7241 38.216 23.7189 38.5867 23.9515C38.7429 24.0482 38.8091 24.2807 38.923 24.4637H38.9204Z" fill="#F21D44"/>
<path id="Vector_5" d="M41.3143 19.3361C41.6426 19.5923 41.9048 19.8902 41.9127 20.2822C41.9207 20.7761 42.0054 21.27 41.6903 21.7561C41.5049 22.0436 41.301 22.1742 41.0151 22.1978C40.5993 22.2317 40.1757 22.2344 39.7626 22.1978C39.5057 22.1742 39.2674 22.0854 39.1376 21.777C38.9338 21.2883 38.7352 20.8336 39.0052 20.2979C39.082 20.1463 39.0397 19.9503 39.1324 19.7621C39.2886 19.4564 39.4792 19.3179 39.8261 19.3309C40.3292 19.3492 40.835 19.3361 41.3143 19.3361Z" fill="#F21D44"/>
<path id="Vector_6" d="M31.4832 28.1039C31.4832 28.0385 31.4911 27.9732 31.4832 27.9079C31.3826 27.2911 31.7586 26.9775 32.2484 26.7318C32.5953 26.5594 32.9555 26.6299 33.3129 26.6822C33.4136 26.6979 33.5062 26.7501 33.6069 26.7658C34.1497 26.8573 34.3827 27.1056 34.3933 27.6256C34.3986 27.9288 34.3959 28.2345 34.3933 28.5377C34.3907 29.1466 34.1735 29.4915 33.5618 29.5935C33.0296 29.6823 32.4868 29.7346 31.9519 29.4131C31.6315 29.2198 31.5282 28.995 31.4911 28.6866C31.4673 28.4932 31.4858 28.2972 31.4858 28.1012L31.4832 28.1039Z" fill="#F21D44"/>
<path id="Vector_7" d="M21.052 39.9476C21.3857 39.8404 21.6876 40.0756 22.008 40.2141C22.2383 40.3134 22.286 40.5591 22.3575 40.7682C22.3787 40.8309 22.3416 40.9459 22.2887 40.9929C22.1218 41.1497 21.9947 41.3379 21.7458 41.4215C21.3486 41.5522 21.0759 41.8736 20.9276 42.2395C20.8376 42.459 20.7158 42.6289 20.5198 42.6785C20.2524 42.7465 19.9717 42.689 19.744 42.5086C19.6804 42.459 19.593 42.3701 19.601 42.3126C19.6407 42.0879 19.4712 41.918 19.4633 41.7142C19.4527 41.4555 19.4447 41.1915 19.4633 40.9328C19.4977 40.4728 20.0617 39.9946 20.6045 39.9502C20.7369 39.9397 20.8693 39.9502 21.0547 39.9502L21.052 39.9476Z" fill="#F21D44"/>
</g>
</g>
</svg>
